  0
SECTION
  2
HEADER
  9
$ACADVER
  1
AC1009
  9
$FILLMODE
 70
0
  9
$EXTMIN
 10
-1.9050
 20
-31.6700
 30
0.0000
  9
$EXTMAX
 10
82.1690
 20
31.6700
 30
0.0000
  0
ENDSEC
  0
SECTION
  2
TABLES
  0
TABLE
  2
LTYPE
 70
1
  0
LTYPE
  2
CONTINUOUS
 70
64
  3
Solid line
 72
65
 73
0
 40
0
  0
ENDTAB
  0
TABLE
  2
LAYER
 70
255
  0
LAYER
  2
20
 70
64
 62
7
  6
CONTINUOUS
  0
LAYER
  2
21
 70
64
 62
253
  6
CONTINUOUS
  0
LAYER
  2
31
 70
64
 62
253
  6
CONTINUOUS
  0
LAYER
  2
127
 70
64
 62
253
  6
CONTINUOUS
  0
LAYER
  2
128
 70
64
 62
253
  6
CONTINUOUS
  0
LAYER
  2
129
 70
64
 62
253
  6
CONTINUOUS
  0
LAYER
  2
150
 70
64
 62
253
  6
CONTINUOUS
  0
LAYER
  2
152
 70
64
 62
253
  6
CONTINUOUS
  0
LAYER
  2
153
 70
64
 62
253
  6
CONTINUOUS
  0
LAYER
  2
154
 70
64
 62
253
  6
CONTINUOUS
  0
LAYER
  2
155
 70
64
 62
253
  6
CONTINUOUS
  0
LAYER
  2
225
 70
64
 62
253
  6
CONTINUOUS
  0
LAYER
  2
226
 70
64
 62
253
  6
CONTINUOUS
  0
LAYER
  2
227
 70
64
 62
253
  6
CONTINUOUS
  0
LAYER
  2
228
 70
64
 62
253
  6
CONTINUOUS
  0
LAYER
  2
229
 70
64
 62
253
  6
CONTINUOUS
  0
LAYER
  2
231
 70
64
 62
253
  6
CONTINUOUS
  0
LAYER
  2
232
 70
64
 62
253
  6
CONTINUOUS
  0
LAYER
  2
233
 70
64
 62
253
  6
CONTINUOUS
  0
LAYER
  2
248
 70
64
 62
253
  6
CONTINUOUS
  0
LAYER
  2
249
 70
64
 62
253
  6
CONTINUOUS
  0
LAYER
  2
250
 70
64
 62
253
  6
CONTINUOUS
  0
LAYER
  2
251
 70
64
 62
253
  6
CONTINUOUS
  0
LAYER
  2
254
 70
64
 62
253
  6
CONTINUOUS
  0
LAYER
  2
255
 70
64
 62
253
  6
CONTINUOUS
  0
ENDTAB
  0
ENDSEC
  0
SECTION
  2
BLOCKS
  0
BLOCK
  8
0
  2
RECT
 70
64
 10
0.0000
 20
0.0000
 30
0.0000
  3
RECT
  0
SOLID
  8
0
 10
-0.5000
 20
-0.5000
 30
0.0000
 11
0.5000
 21
-0.5000
 31
0.0000
 12
-0.5000
 22
0.5000
 32
0.0000
 13
0.5000
 23
0.5000
 33
0.0000
  0
ENDBLK
  8
0
  0
BLOCK
  8
0
  2
PIE
 70
64
 10
0.0000
 20
0.0000
 30
0.0000
  3
PIE
  0
CIRCLE
  8
0
 10
0.0000
 20
0.0000
 30
0.0000
 40
0.5000
  0
ENDBLK
  8
0
  0
BLOCK
  8
0
  2
OCTAGONP
 70
64
 10
0.0000
 20
0.0000
 30
0.0000
  3
OCTAGONP
  0
POLYLINE
  8
0
 66
1
 10
0.0000
 20
0.0000
 30
0.0000
 40
0.0000
 41
0.0000
 70
1
  0
VERTEX
  8
0
 10
-0.5000
 20
-0.2071
 30
0.0000
  0
VERTEX
  8
0
 10
-0.5000
 20
0.2071
 30
0.0000
  0
VERTEX
  8
0
 10
-0.2071
 20
0.5000
 30
0.0000
  0
VERTEX
  8
0
 10
0.2071
 20
0.5000
 30
0.0000
  0
VERTEX
  8
0
 10
0.5000
 20
0.2071
 30
0.0000
  0
VERTEX
  8
0
 10
0.5000
 20
-0.2071
 30
0.0000
  0
VERTEX
  8
0
 10
0.2071
 20
-0.5000
 30
0.0000
  0
VERTEX
  8
0
 10
-0.2071
 20
-0.5000
 30
0.0000
  0
SEQEND
  8
0
  0
ENDBLK
  8
0
  0
BLOCK
  8
0
  2
SQUAREP
 70
64
 10
0.0000
 20
0.0000
 30
0.0000
  3
SQUAREP
  0
SOLID
  8
0
 10
-0.5000
 20
-0.5000
 30
0.0000
 11
0.5000
 21
-0.5000
 31
0.0000
 12
-0.5000
 22
0.5000
 32
0.0000
 13
0.5000
 23
0.5000
 33
0.0000
  0
ENDBLK
  8
0
  0
BLOCK
  8
0
  2
ROUNDP
 70
64
 10
0.0000
 20
0.0000
 30
0.0000
  3
ROUNDP
  0
CIRCLE
  8
0
 10
0.0000
 20
0.0000
 30
0.0000
 40
0.5000
  0
ENDBLK
  8
0
  0
BLOCK
  8
0
  2
ANNULUSP
 70
64
 10
0.0000
 20
0.0000
 30
0.0000
  3
ANNULUSP
  0
CIRCLE
  8
0
 10
0.0000
 20
0.0000
 30
0.0000
 40
0.5000
  0
ENDBLK
  8
0
  0
BLOCK
  8
0
  2
THERMALP
 70
64
 10
0.0000
 20
0.0000
 30
0.0000
  3
THERMALP
  0
POLYLINE
  8
0
 66
1
 10
0.0000
 20
0.0000
 30
0.0000
 40
0.0000
 41
0.0000
 70
1
  0
VERTEX
  8
0
 10
-0.2379
 20
0.4000
 30
0.0000
  0
VERTEX
  8
0
 10
0.2379
 20
0.4000
 30
0.0000
 42
1.0000
  0
VERTEX
  8
0
 10
0.2379
 20
0.5000
 30
0.0000
  0
VERTEX
  8
0
 10
-0.2379
 20
0.5000
 30
0.0000
 42
1.0000
  0
SEQEND
  8
0
  0
POLYLINE
  8
0
 66
1
 10
0.0000
 20
0.0000
 30
0.0000
 40
0.0000
 41
0.0000
 70
1
  0
VERTEX
  8
0
 10
0.4000
 20
0.2379
 30
0.0000
  0
VERTEX
  8
0
 10
0.4000
 20
-0.2379
 30
0.0000
 42
1.0000
  0
VERTEX
  8
0
 10
0.5000
 20
-0.2379
 30
0.0000
  0
VERTEX
  8
0
 10
0.5000
 20
0.2379
 30
0.0000
 42
1.0000
  0
SEQEND
  8
0
  0
POLYLINE
  8
0
 66
1
 10
0.0000
 20
0.0000
 30
0.0000
 40
0.0000
 41
0.0000
 70
1
  0
VERTEX
  8
0
 10
0.2379
 20
-0.4000
 30
0.0000
  0
VERTEX
  8
0
 10
-0.2379
 20
-0.4000
 30
0.0000
 42
1.0000
  0
VERTEX
  8
0
 10
-0.2379
 20
-0.5000
 30
0.0000
  0
VERTEX
  8
0
 10
0.2379
 20
-0.5000
 30
0.0000
 42
1.0000
  0
SEQEND
  8
0
  0
POLYLINE
  8
0
 66
1
 10
0.0000
 20
0.0000
 30
0.0000
 40
0.0000
 41
0.0000
 70
1
  0
VERTEX
  8
0
 10
-0.4000
 20
-0.2379
 30
0.0000
  0
VERTEX
  8
0
 10
-0.4000
 20
0.2379
 30
0.0000
 42
1.0000
  0
VERTEX
  8
0
 10
-0.5000
 20
0.2379
 30
0.0000
  0
VERTEX
  8
0
 10
-0.5000
 20
-0.2379
 30
0.0000
 42
1.0000
  0
SEQEND
  8
0
  0
ENDBLK
  8
0
  0
BLOCK
  8
0
  2
OCTAGONV
 70
64
 10
0.0000
 20
0.0000
 30
0.0000
  3
OCTAGONV
  0
POLYLINE
  8
0
 66
1
 10
0.0000
 20
0.0000
 30
0.0000
 40
0.0000
 41
0.0000
 70
1
  0
VERTEX
  8
0
 10
-0.5000
 20
-0.2071
 30
0.0000
  0
VERTEX
  8
0
 10
-0.5000
 20
0.2071
 30
0.0000
  0
VERTEX
  8
0
 10
-0.2071
 20
0.5000
 30
0.0000
  0
VERTEX
  8
0
 10
0.2071
 20
0.5000
 30
0.0000
  0
VERTEX
  8
0
 10
0.5000
 20
0.2071
 30
0.0000
  0
VERTEX
  8
0
 10
0.5000
 20
-0.2071
 30
0.0000
  0
VERTEX
  8
0
 10
0.2071
 20
-0.5000
 30
0.0000
  0
VERTEX
  8
0
 10
-0.2071
 20
-0.5000
 30
0.0000
  0
SEQEND
  8
0
  0
ENDBLK
  8
0
  0
BLOCK
  8
0
  2
SQUAREV
 70
64
 10
0.0000
 20
0.0000
 30
0.0000
  3
SQUAREV
  0
SOLID
  8
0
 10
-0.5000
 20
-0.5000
 30
0.0000
 11
0.5000
 21
-0.5000
 31
0.0000
 12
-0.5000
 22
0.5000
 32
0.0000
 13
0.5000
 23
0.5000
 33
0.0000
  0
ENDBLK
  8
0
  0
BLOCK
  8
0
  2
ROUNDV
 70
64
 10
0.0000
 20
0.0000
 30
0.0000
  3
ROUNDV
  0
CIRCLE
  8
0
 10
0.0000
 20
0.0000
 30
0.0000
 40
0.5000
  0
ENDBLK
  8
0
  0
BLOCK
  8
0
  2
ANNULUSV
 70
64
 10
0.0000
 20
0.0000
 30
0.0000
  3
ANNULUSV
  0
CIRCLE
  8
0
 10
0.0000
 20
0.0000
 30
0.0000
 40
0.5000
  0
ENDBLK
  8
0
  0
BLOCK
  8
0
  2
THERMALV
 70
64
 10
0.0000
 20
0.0000
 30
0.0000
  3
THERMALV
  0
POLYLINE
  8
0
 66
1
 10
0.0000
 20
0.0000
 30
0.0000
 40
0.0000
 41
0.0000
 70
1
  0
VERTEX
  8
0
 10
-0.2379
 20
0.4000
 30
0.0000
  0
VERTEX
  8
0
 10
0.2379
 20
0.4000
 30
0.0000
 42
1.0000
  0
VERTEX
  8
0
 10
0.2379
 20
0.5000
 30
0.0000
  0
VERTEX
  8
0
 10
-0.2379
 20
0.5000
 30
0.0000
 42
1.0000
  0
SEQEND
  8
0
  0
POLYLINE
  8
0
 66
1
 10
0.0000
 20
0.0000
 30
0.0000
 40
0.0000
 41
0.0000
 70
1
  0
VERTEX
  8
0
 10
0.4000
 20
0.2379
 30
0.0000
  0
VERTEX
  8
0
 10
0.4000
 20
-0.2379
 30
0.0000
 42
1.0000
  0
VERTEX
  8
0
 10
0.5000
 20
-0.2379
 30
0.0000
  0
VERTEX
  8
0
 10
0.5000
 20
0.2379
 30
0.0000
 42
1.0000
  0
SEQEND
  8
0
  0
POLYLINE
  8
0
 66
1
 10
0.0000
 20
0.0000
 30
0.0000
 40
0.0000
 41
0.0000
 70
1
  0
VERTEX
  8
0
 10
0.2379
 20
-0.4000
 30
0.0000
  0
VERTEX
  8
0
 10
-0.2379
 20
-0.4000
 30
0.0000
 42
1.0000
  0
VERTEX
  8
0
 10
-0.2379
 20
-0.5000
 30
0.0000
  0
VERTEX
  8
0
 10
0.2379
 20
-0.5000
 30
0.0000
 42
1.0000
  0
SEQEND
  8
0
  0
POLYLINE
  8
0
 66
1
 10
0.0000
 20
0.0000
 30
0.0000
 40
0.0000
 41
0.0000
 70
1
  0
VERTEX
  8
0
 10
-0.4000
 20
-0.2379
 30
0.0000
  0
VERTEX
  8
0
 10
-0.4000
 20
0.2379
 30
0.0000
 42
1.0000
  0
VERTEX
  8
0
 10
-0.5000
 20
0.2379
 30
0.0000
  0
VERTEX
  8
0
 10
-0.5000
 20
-0.2379
 30
0.0000
 42
1.0000
  0
SEQEND
  8
0
  0
ENDBLK
  8
0
  0
BLOCK
  8
0
  2
LONGP100
 70
64
 10
0.0000
 20
0.0000
 30
0.0000
  3
LONGP100
  0
POLYLINE
  8
0
 66
1
 10
0.0000
 20
0.0000
 30
0.0000
 40
0.0000
 41
0.0000
 70
1
  0
VERTEX
  8
0
 10
-0.5000
 20
-0.5000
 30
0.0000
  0
VERTEX
  8
0
 10
0.5000
 20
-0.5000
 30
0.0000
 42
1.0000
  0
VERTEX
  8
0
 10
0.5000
 20
0.5000
 30
0.0000
  0
VERTEX
  8
0
 10
-0.5000
 20
0.5000
 30
0.0000
 42
1.0000
  0
SEQEND
  8
0
  0
ENDBLK
  8
0
  0
BLOCK
  8
0
  2
RECT125984X125984R100
 70
64
 10
0.0000
 20
0.0000
 30
0.0000
  3
RECT125984X125984R100
  0
POLYLINE
  8
0
 66
1
 10
0.0000
 20
0.0000
 30
0.0000
 40
0.0000
 41
0.0000
 70
1
  0
VERTEX
  8
0
 10
0.3937
 20
0.0000
 30
0.0000
  0
VERTEX
  8
0
 10
0.3937
 20
0.0000
 30
0.0000
 42
0.4142
  0
VERTEX
  8
0
 10
0.0000
 20
0.3937
 30
0.0000
  0
VERTEX
  8
0
 10
0.0000
 20
0.3937
 30
0.0000
 42
0.4142
  0
VERTEX
  8
0
 10
-0.3937
 20
0.0000
 30
0.0000
  0
VERTEX
  8
0
 10
-0.3937
 20
0.0000
 30
0.0000
 42
0.4142
  0
VERTEX
  8
0
 10
0.0000
 20
-0.3937
 30
0.0000
  0
VERTEX
  8
0
 10
0.0000
 20
-0.3937
 30
0.0000
 42
0.4142
  0
SEQEND
  8
0
  0
ENDBLK
  8
0
  0
BLOCK
  8
0
  2
RECT112000X44800R50
 70
64
 10
0.0000
 20
0.0000
 30
0.0000
  3
RECT112000X44800R50
  0
POLYLINE
  8
0
 66
1
 10
0.0000
 20
0.0000
 30
0.0000
 40
0.0000
 41
0.0000
 70
1
  0
VERTEX
  8
0
 10
0.3500
 20
-0.0700
 30
0.0000
  0
VERTEX
  8
0
 10
0.3500
 20
0.0700
 30
0.0000
 42
0.4142
  0
VERTEX
  8
0
 10
0.2800
 20
0.1400
 30
0.0000
  0
VERTEX
  8
0
 10
-0.2800
 20
0.1400
 30
0.0000
 42
0.4142
  0
VERTEX
  8
0
 10
-0.3500
 20
0.0700
 30
0.0000
  0
VERTEX
  8
0
 10
-0.3500
 20
-0.0700
 30
0.0000
 42
0.4142
  0
VERTEX
  8
0
 10
-0.2800
 20
-0.1400
 30
0.0000
  0
VERTEX
  8
0
 10
0.2800
 20
-0.1400
 30
0.0000
 42
0.4142
  0
SEQEND
  8
0
  0
ENDBLK
  8
0
  0
BLOCK
  8
0
  2
RECT44800X112000R50
 70
64
 10
0.0000
 20
0.0000
 30
0.0000
  3
RECT44800X112000R50
  0
POLYLINE
  8
0
 66
1
 10
0.0000
 20
0.0000
 30
0.0000
 40
0.0000
 41
0.0000
 70
1
  0
VERTEX
  8
0
 10
0.1400
 20
-0.2800
 30
0.0000
  0
VERTEX
  8
0
 10
0.1400
 20
0.2800
 30
0.0000
 42
0.4142
  0
VERTEX
  8
0
 10
0.0700
 20
0.3500
 30
0.0000
  0
VERTEX
  8
0
 10
-0.0700
 20
0.3500
 30
0.0000
 42
0.4142
  0
VERTEX
  8
0
 10
-0.1400
 20
0.2800
 30
0.0000
  0
VERTEX
  8
0
 10
-0.1400
 20
-0.2800
 30
0.0000
 42
0.4142
  0
VERTEX
  8
0
 10
-0.0700
 20
-0.3500
 30
0.0000
  0
VERTEX
  8
0
 10
0.0700
 20
-0.3500
 30
0.0000
 42
0.4142
  0
SEQEND
  8
0
  0
ENDBLK
  8
0
  0
BLOCK
  8
0
  2
RECT0X0R100
 70
64
 10
0.0000
 20
0.0000
 30
0.0000
  3
RECT0X0R100
  0
POLYLINE
  8
0
 66
1
 10
0.0000
 20
0.0000
 30
0.0000
 40
0.0000
 41
0.0000
 70
1
  0
VERTEX
  8
0
 10
0.0000
 20
0.0000
 30
0.0000
  0
VERTEX
  8
0
 10
0.0000
 20
0.0000
 30
0.0000
 42
0.4142
  0
VERTEX
  8
0
 10
0.0000
 20
0.0000
 30
0.0000
  0
VERTEX
  8
0
 10
0.0000
 20
0.0000
 30
0.0000
 42
0.4142
  0
VERTEX
  8
0
 10
0.0000
 20
0.0000
 30
0.0000
  0
VERTEX
  8
0
 10
0.0000
 20
0.0000
 30
0.0000
 42
0.4142
  0
VERTEX
  8
0
 10
0.0000
 20
0.0000
 30
0.0000
  0
VERTEX
  8
0
 10
0.0000
 20
0.0000
 30
0.0000
 42
0.4142
  0
SEQEND
  8
0
  0
ENDBLK
  8
0
  0
BLOCK
  8
0
  2
RECT192000X56000R50
 70
64
 10
0.0000
 20
0.0000
 30
0.0000
  3
RECT192000X56000R50
  0
POLYLINE
  8
0
 66
1
 10
0.0000
 20
0.0000
 30
0.0000
 40
0.0000
 41
0.0000
 70
1
  0
VERTEX
  8
0
 10
0.6000
 20
-0.0875
 30
0.0000
  0
VERTEX
  8
0
 10
0.6000
 20
0.0875
 30
0.0000
 42
0.4142
  0
VERTEX
  8
0
 10
0.5125
 20
0.1750
 30
0.0000
  0
VERTEX
  8
0
 10
-0.5125
 20
0.1750
 30
0.0000
 42
0.4142
  0
VERTEX
  8
0
 10
-0.6000
 20
0.0875
 30
0.0000
  0
VERTEX
  8
0
 10
-0.6000
 20
-0.0875
 30
0.0000
 42
0.4142
  0
VERTEX
  8
0
 10
-0.5125
 20
-0.1750
 30
0.0000
  0
VERTEX
  8
0
 10
0.5125
 20
-0.1750
 30
0.0000
 42
0.4142
  0
SEQEND
  8
0
  0
ENDBLK
  8
0
  0
ENDSEC
  0
SECTION
  2
ENTITIES
  0
POLYLINE
  8
20
 66
1
 10
0.0000
 20
0.0000
 30
0.0000
 40
0.0000
 41
0.0000
 70
1
  0
VERTEX
  8
20
 10
81.1530
 20
20.3200
 30
0.0000
 42
1.0000
  0
VERTEX
  8
20
 10
81.4070
 20
20.3200
 30
0.0000
 42
0.4142
  0
VERTEX
  8
20
 10
74.9300
 20
26.7970
 30
0.0000
 42
1.0000
  0
VERTEX
  8
20
 10
74.9300
 20
26.5430
 30
0.0000
 42
-0.4142
  0
SEQEND
  8
0
  0
POLYLINE
  8
20
 66
1
 10
0.0000
 20
0.0000
 30
0.0000
 40
0.0000
 41
0.0000
 70
1
  0
VERTEX
  8
20
 10
81.1530
 20
20.3200
 30
0.0000
  0
VERTEX
  8
20
 10
81.1530
 20
-20.3200
 30
0.0000
 42
1.0000
  0
VERTEX
  8
20
 10
81.4070
 20
-20.3200
 30
0.0000
  0
VERTEX
  8
20
 10
81.4070
 20
20.3200
 30
0.0000
 42
1.0000
  0
SEQEND
  8
0
  0
POLYLINE
  8
20
 66
1
 10
0.0000
 20
0.0000
 30
0.0000
 40
0.0000
 41
0.0000
 70
1
  0
VERTEX
  8
20
 10
74.9300
 20
-26.5430
 30
0.0000
 42
1.0000
  0
VERTEX
  8
20
 10
74.9300
 20
-26.7970
 30
0.0000
 42
0.4142
  0
VERTEX
  8
20
 10
81.4070
 20
-20.3200
 30
0.0000
 42
1.0000
  0
VERTEX
  8
20
 10
81.1530
 20
-20.3200
 30
0.0000
 42
-0.4142
  0
SEQEND
  8
0
  0
POLYLINE
  8
20
 66
1
 10
0.0000
 20
0.0000
 30
0.0000
 40
0.0000
 41
0.0000
 70
1
  0
VERTEX
  8
20
 10
74.9300
 20
-26.5430
 30
0.0000
  0
VERTEX
  8
20
 10
6.3500
 20
-26.5430
 30
0.0000
 42
1.0000
  0
VERTEX
  8
20
 10
6.3500
 20
-26.7970
 30
0.0000
  0
VERTEX
  8
20
 10
74.9300
 20
-26.7970
 30
0.0000
 42
1.0000
  0
SEQEND
  8
0
  0
POLYLINE
  8
20
 66
1
 10
0.0000
 20
0.0000
 30
0.0000
 40
0.0000
 41
0.0000
 70
1
  0
VERTEX
  8
20
 10
0.1270
 20
-20.3200
 30
0.0000
 42
1.0000
  0
VERTEX
  8
20
 10
-0.1270
 20
-20.3200
 30
0.0000
 42
0.4142
  0
VERTEX
  8
20
 10
6.3500
 20
-26.7970
 30
0.0000
 42
1.0000
  0
VERTEX
  8
20
 10
6.3500
 20
-26.5430
 30
0.0000
 42
-0.4142
  0
SEQEND
  8
0
  0
POLYLINE
  8
20
 66
1
 10
0.0000
 20
0.0000
 30
0.0000
 40
0.0000
 41
0.0000
 70
1
  0
VERTEX
  8
20
 10
0.1270
 20
-20.3200
 30
0.0000
  0
VERTEX
  8
20
 10
0.1270
 20
20.3200
 30
0.0000
 42
1.0000
  0
VERTEX
  8
20
 10
-0.1270
 20
20.3200
 30
0.0000
  0
VERTEX
  8
20
 10
-0.1270
 20
-20.3200
 30
0.0000
 42
1.0000
  0
SEQEND
  8
0
  0
POLYLINE
  8
20
 66
1
 10
0.0000
 20
0.0000
 30
0.0000
 40
0.0000
 41
0.0000
 70
1
  0
VERTEX
  8
20
 10
74.9300
 20
26.7970
 30
0.0000
  0
VERTEX
  8
20
 10
6.3500
 20
26.7970
 30
0.0000
 42
1.0000
  0
VERTEX
  8
20
 10
6.3500
 20
26.5430
 30
0.0000
  0
VERTEX
  8
20
 10
74.9300
 20
26.5430
 30
0.0000
 42
1.0000
  0
SEQEND
  8
0
  0
POLYLINE
  8
20
 66
1
 10
0.0000
 20
0.0000
 30
0.0000
 40
0.0000
 41
0.0000
 70
1
  0
VERTEX
  8
20
 10
6.3500
 20
26.5430
 30
0.0000
 42
1.0000
  0
VERTEX
  8
20
 10
6.3500
 20
26.7970
 30
0.0000
 42
0.4142
  0
VERTEX
  8
20
 10
-0.1270
 20
20.3200
 30
0.0000
 42
1.0000
  0
VERTEX
  8
20
 10
0.1270
 20
20.3200
 30
0.0000
 42
-0.4142
  0
SEQEND
  8
0
  0
CIRCLE
  8
20
 10
13.7287
 20
23.0886
 30
0.0000
 40
1.6000
  0
CIRCLE
  8
20
 10
14.9479
 20
-23.8506
 30
0.0000
 40
1.6000
  0
CIRCLE
  8
20
 10
68.6562
 20
-23.8506
 30
0.0000
 40
1.6000
  0
CIRCLE
  8
20
 10
68.6562
 20
23.0886
 30
0.0000
 40
1.6000
  0
INSERT
  8
31
  2
RECT
 10
16.8910
 20
-13.8820
 30
0.0000
 41
1.0000
 42
1.1000
 43
1.0000
 50
270.0000
  0
INSERT
  8
31
  2
RECT
 10
16.8910
 20
-15.5820
 30
0.0000
 41
1.0000
 42
1.1000
 43
1.0000
 50
270.0000
  0
POLYLINE
  8
21
 66
1
 10
0.0000
 20
0.0000
 30
0.0000
 40
0.0000
 41
0.0000
 70
1
  0
VERTEX
  8
21
 10
15.5190
 20
-14.2750
 30
0.0000
  0
VERTEX
  8
21
 10
15.5190
 20
-16.8400
 30
0.0000
 42
1.0000
  0
VERTEX
  8
21
 10
15.7730
 20
-16.8400
 30
0.0000
  0
VERTEX
  8
21
 10
15.7730
 20
-14.2750
 30
0.0000
 42
1.0000
  0
SEQEND
  8
0
  0
POLYLINE
  8
21
 66
1
 10
0.0000
 20
0.0000
 30
0.0000
 40
0.0000
 41
0.0000
 70
1
  0
VERTEX
  8
21
 10
12.6750
 20
-14.2750
 30
0.0000
  0
VERTEX
  8
21
 10
12.6750
 20
-16.8400
 30
0.0000
 42
1.0000
  0
VERTEX
  8
21
 10
12.9290
 20
-16.8400
 30
0.0000
  0
VERTEX
  8
21
 10
12.9290
 20
-14.2750
 30
0.0000
 42
1.0000
  0
SEQEND
  8
0
  0
POLYLINE
  8
21
 66
1
 10
0.0000
 20
0.0000
 30
0.0000
 40
0.0000
 41
0.0000
 70
1
  0
VERTEX
  8
21
 10
15.6210
 20
-14.7320
 30
0.0000
  0
VERTEX
  8
21
 10
12.8270
 20
-14.7320
 30
0.0000
 42
1.0000
  0
VERTEX
  8
21
 10
12.8270
 20
-14.9860
 30
0.0000
  0
VERTEX
  8
21
 10
15.6210
 20
-14.9860
 30
0.0000
 42
1.0000
  0
SEQEND
  8
0
  0
INSERT
  8
31
  2
RECT
 10
14.2240
 20
-13.8400
 30
0.0000
 41
1.6000
 42
2.2000
 43
1.0000
 50
270.0000
  0
INSERT
  8
31
  2
RECT
 10
14.2240
 20
-16.6400
 30
0.0000
 41
1.6000
 42
2.2000
 43
1.0000
 50
270.0000
  0
INSERT
  8
31
  2
RECT
 10
27.7250
 20
-4.4450
 30
0.0000
 41
1.0000
 42
1.1000
 43
1.0000
 50
0.0000
  0
INSERT
  8
31
  2
RECT
 10
29.4250
 20
-4.4450
 30
0.0000
 41
1.0000
 42
1.1000
 43
1.0000
 50
0.0000
  0
INSERT
  8
31
  2
RECT
 10
11.7230
 20
3.4290
 30
0.0000
 41
1.0000
 42
1.1000
 43
1.0000
 50
0.0000
  0
INSERT
  8
31
  2
RECT
 10
13.4230
 20
3.4290
 30
0.0000
 41
1.0000
 42
1.1000
 43
1.0000
 50
0.0000
  0
INSERT
  8
31
  2
RECT
 10
11.7230
 20
-2.6670
 30
0.0000
 41
1.0000
 42
1.1000
 43
1.0000
 50
0.0000
  0
INSERT
  8
31
  2
RECT
 10
13.4230
 20
-2.6670
 30
0.0000
 41
1.0000
 42
1.1000
 43
1.0000
 50
0.0000
  0
INSERT
  8
31
  2
RECT
 10
29.5520
 20
0.3810
 30
0.0000
 41
1.0000
 42
1.1000
 43
1.0000
 50
180.0000
  0
INSERT
  8
31
  2
RECT
 10
27.8520
 20
0.3810
 30
0.0000
 41
1.0000
 42
1.1000
 43
1.0000
 50
180.0000
  0
INSERT
  8
31
  2
RECT
 10
17.5260
 20
-3.0090
 30
0.0000
 41
1.0000
 42
1.1000
 43
1.0000
 50
90.0000
  0
INSERT
  8
31
  2
RECT
 10
17.5260
 20
-1.3090
 30
0.0000
 41
1.0000
 42
1.1000
 43
1.0000
 50
90.0000
  0
INSERT
  8
31
  2
RECT
 10
24.9800
 20
-4.1910
 30
0.0000
 41
1.0000
 42
1.1000
 43
1.0000
 50
180.0000
  0
INSERT
  8
31
  2
RECT
 10
23.2800
 20
-4.1910
 30
0.0000
 41
1.0000
 42
1.1000
 43
1.0000
 50
180.0000
  0
INSERT
  8
31
  2
RECT
 10
29.5520
 20
3.8100
 30
0.0000
 41
1.0000
 42
1.1000
 43
1.0000
 50
180.0000
  0
INSERT
  8
31
  2
RECT
 10
27.8520
 20
3.8100
 30
0.0000
 41
1.0000
 42
1.1000
 43
1.0000
 50
180.0000
  0
INSERT
  8
31
  2
RECT
 10
54.2680
 20
10.0330
 30
0.0000
 41
1.0000
 42
1.1000
 43
1.0000
 50
0.0000
  0
INSERT
  8
31
  2
RECT
 10
55.9680
 20
10.0330
 30
0.0000
 41
1.0000
 42
1.1000
 43
1.0000
 50
0.0000
  0
INSERT
  8
31
  2
RECT
 10
58.5470
 20
15.8360
 30
0.0000
 41
1.0000
 42
1.1000
 43
1.0000
 50
270.0000
  0
INSERT
  8
31
  2
RECT
 10
58.5470
 20
14.1360
 30
0.0000
 41
1.0000
 42
1.1000
 43
1.0000
 50
270.0000
  0
INSERT
  8
31
  2
RECT
 10
61.7610
 20
-9.6520
 30
0.0000
 41
1.0000
 42
1.1000
 43
1.0000
 50
0.0000
  0
INSERT
  8
31
  2
RECT
 10
63.4610
 20
-9.6520
 30
0.0000
 41
1.0000
 42
1.1000
 43
1.0000
 50
0.0000
  0
INSERT
  8
31
  2
RECT
 10
52.6660
 20
10.0330
 30
0.0000
 41
1.0000
 42
1.1000
 43
1.0000
 50
180.0000
  0
INSERT
  8
31
  2
RECT
 10
50.9660
 20
10.0330
 30
0.0000
 41
1.0000
 42
1.1000
 43
1.0000
 50
180.0000
  0
INSERT
  8
31
  2
RECT
 10
61.7220
 20
-16.5980
 30
0.0000
 41
1.0000
 42
1.1000
 43
1.0000
 50
90.0000
  0
INSERT
  8
31
  2
RECT
 10
61.7220
 20
-14.8980
 30
0.0000
 41
1.0000
 42
1.1000
 43
1.0000
 50
90.0000
  0
INSERT
  8
31
  2
RECT
 10
64.3890
 20
-11.3420
 30
0.0000
 41
1.0000
 42
1.1000
 43
1.0000
 50
270.0000
  0
INSERT
  8
31
  2
RECT
 10
64.3890
 20
-13.0420
 30
0.0000
 41
1.0000
 42
1.1000
 43
1.0000
 50
270.0000
  0
POLYLINE
  8
21
 66
1
 10
0.0000
 20
0.0000
 30
0.0000
 40
0.0000
 41
0.0000
 70
1
  0
VERTEX
  8
21
 10
38.3290
 20
-12.5220
 30
0.0000
  0
VERTEX
  8
21
 10
38.3290
 20
-9.9570
 30
0.0000
 42
1.0000
  0
VERTEX
  8
21
 10
38.0750
 20
-9.9570
 30
0.0000
  0
VERTEX
  8
21
 10
38.0750
 20
-12.5220
 30
0.0000
 42
1.0000
  0
SEQEND
  8
0
  0
POLYLINE
  8
21
 66
1
 10
0.0000
 20
0.0000
 30
0.0000
 40
0.0000
 41
0.0000
 70
1
  0
VERTEX
  8
21
 10
41.1730
 20
-12.5220
 30
0.0000
  0
VERTEX
  8
21
 10
41.1730
 20
-9.9570
 30
0.0000
 42
1.0000
  0
VERTEX
  8
21
 10
40.9190
 20
-9.9570
 30
0.0000
  0
VERTEX
  8
21
 10
40.9190
 20
-12.5220
 30
0.0000
 42
1.0000
  0
SEQEND
  8
0
  0
POLYLINE
  8
21
 66
1
 10
0.0000
 20
0.0000
 30
0.0000
 40
0.0000
 41
0.0000
 70
1
  0
VERTEX
  8
21
 10
38.2270
 20
-12.0650
 30
0.0000
  0
VERTEX
  8
21
 10
41.0210
 20
-12.0650
 30
0.0000
 42
1.0000
  0
VERTEX
  8
21
 10
41.0210
 20
-11.8110
 30
0.0000
  0
VERTEX
  8
21
 10
38.2270
 20
-11.8110
 30
0.0000
 42
1.0000
  0
SEQEND
  8
0
  0
INSERT
  8
31
  2
RECT
 10
39.6240
 20
-12.9570
 30
0.0000
 41
1.6000
 42
2.2000
 43
1.0000
 50
90.0000
  0
INSERT
  8
31
  2
RECT
 10
39.6240
 20
-10.1570
 30
0.0000
 41
1.6000
 42
2.2000
 43
1.0000
 50
90.0000
  0
INSERT
  8
31
  2
RECT
 10
37.0840
 20
-11.2150
 30
0.0000
 41
1.0000
 42
1.1000
 43
1.0000
 50
270.0000
  0
INSERT
  8
31
  2
RECT
 10
37.0840
 20
-12.9150
 30
0.0000
 41
1.0000
 42
1.1000
 43
1.0000
 50
270.0000
  0
INSERT
  8
31
  2
RECT
 10
34.6320
 20
8.1280
 30
0.0000
 41
1.0000
 42
1.1000
 43
1.0000
 50
180.0000
  0
INSERT
  8
31
  2
RECT
 10
32.9320
 20
8.1280
 30
0.0000
 41
1.0000
 42
1.1000
 43
1.0000
 50
180.0000
  0
INSERT
  8
31
  2
RECT
 10
47.3710
 20
9.5640
 30
0.0000
 41
1.0000
 42
1.1000
 43
1.0000
 50
90.0000
  0
INSERT
  8
31
  2
RECT
 10
47.3710
 20
11.2640
 30
0.0000
 41
1.0000
 42
1.1000
 43
1.0000
 50
90.0000
  0
INSERT
  8
31
  2
RECT
 10
33.4400
 20
-15.7480
 30
0.0000
 41
1.0000
 42
1.1000
 43
1.0000
 50
0.0000
  0
INSERT
  8
31
  2
RECT
 10
35.1400
 20
-15.7480
 30
0.0000
 41
1.0000
 42
1.1000
 43
1.0000
 50
0.0000
  0
LINE
  8
20
 10
-0.0530
 20
-4.1500
 30
0.0000
 11
-0.0530
 21
4.1500
 31
0.0000
  0
INSERT
  8
31
  2
RECT
 10
4.1970
 20
-0.6500
 30
0.0000
 41
0.4500
 42
1.7000
 43
1.0000
 50
90.0000
  0
INSERT
  8
31
  2
RECT
 10
4.1970
 20
0.0000
 30
0.0000
 41
0.4500
 42
1.7000
 43
1.0000
 50
90.0000
  0
INSERT
  8
31
  2
RECT
 10
4.1970
 20
0.6500
 30
0.0000
 41
0.4500
 42
1.7000
 43
1.0000
 50
90.0000
  0
INSERT
  8
31
  2
RECT
 10
4.1970
 20
-1.3000
 30
0.0000
 41
0.4500
 42
1.7000
 43
1.0000
 50
90.0000
  0
INSERT
  8
31
  2
RECT
 10
1.3970
 20
2.9500
 30
0.0000
 41
2.3750
 42
1.9000
 43
1.0000
 50
90.0000
  0
INSERT
  8
31
  2
RECT
 10
3.6970
 20
2.5000
 30
0.0000
 41
2.1000
 42
1.4750
 43
1.0000
 50
0.0000
  0
INSERT
  8
31
  2
RECT
 10
3.6970
 20
-2.5000
 30
0.0000
 41
2.1000
 42
1.4750
 43
1.0000
 50
0.0000
  0
INSERT
  8
31
  2
RECT
 10
1.3970
 20
-2.9500
 30
0.0000
 41
2.3750
 42
1.9000
 43
1.0000
 50
90.0000
  0
INSERT
  8
31
  2
RECT
 10
4.1970
 20
1.3000
 30
0.0000
 41
0.4500
 42
1.7000
 43
1.0000
 50
90.0000
  0
CIRCLE
  8
20
 10
23.2410
 20
-6.8580
 30
0.0000
 40
0.4953
  0
CIRCLE
  8
20
 10
18.1610
 20
-7.8740
 30
0.0000
 40
0.4953
  0
CIRCLE
  8
20
 10
18.1610
 20
-5.8420
 30
0.0000
 40
0.4953
  0
INSERT
  8
31
  2
PIE
 10
21.9710
 20
-6.2230
 30
0.0000
 41
0.7874
 42
0.7874
 43
1.0000
 50
0.0000
  0
INSERT
  8
31
  2
PIE
 10
21.9710
 20
-7.4930
 30
0.0000
 41
0.7874
 42
0.7874
 43
1.0000
 50
0.0000
  0
INSERT
  8
31
  2
PIE
 10
20.7010
 20
-6.2230
 30
0.0000
 41
0.7874
 42
0.7874
 43
1.0000
 50
0.0000
  0
INSERT
  8
31
  2
PIE
 10
20.7010
 20
-7.4930
 30
0.0000
 41
0.7874
 42
0.7874
 43
1.0000
 50
0.0000
  0
INSERT
  8
31
  2
PIE
 10
19.4310
 20
-6.2230
 30
0.0000
 41
0.7874
 42
0.7874
 43
1.0000
 50
0.0000
  0
INSERT
  8
31
  2
PIE
 10
19.4310
 20
-7.4930
 30
0.0000
 41
0.7874
 42
0.7874
 43
1.0000
 50
0.0000
  0
POLYLINE
  8
21
 66
1
 10
0.0000
 20
0.0000
 30
0.0000
 40
0.0000
 41
0.0000
 70
1
  0
VERTEX
  8
21
 10
19.7955
 20
7.3820
 30
0.0000
  0
VERTEX
  8
21
 10
19.7955
 20
9.3820
 30
0.0000
 42
1.0000
  0
VERTEX
  8
21
 10
19.6685
 20
9.3820
 30
0.0000
  0
VERTEX
  8
21
 10
19.6685
 20
7.3820
 30
0.0000
 42
1.0000
  0
SEQEND
  8
0
  0
POLYLINE
  8
21
 66
1
 10
0.0000
 20
0.0000
 30
0.0000
 40
0.0000
 41
0.0000
 70
1
  0
VERTEX
  8
21
 10
9.8590
 20
6.8820
 30
0.0000
  0
VERTEX
  8
21
 10
9.8590
 20
9.8820
 30
0.0000
 42
1.0000
  0
VERTEX
  8
21
 10
9.6050
 20
9.8820
 30
0.0000
  0
VERTEX
  8
21
 10
9.6050
 20
6.8820
 30
0.0000
 42
1.0000
  0
SEQEND
  8
0
  0
POLYLINE
  8
21
 66
1
 10
0.0000
 20
0.0000
 30
0.0000
 40
0.0000
 41
0.0000
 70
1
  0
VERTEX
  8
21
 10
19.8590
 20
6.1820
 30
0.0000
  0
VERTEX
  8
21
 10
19.8590
 20
10.5820
 30
0.0000
 42
1.0000
  0
VERTEX
  8
21
 10
19.6050
 20
10.5820
 30
0.0000
  0
VERTEX
  8
21
 10
19.6050
 20
6.1820
 30
0.0000
 42
1.0000
  0
SEQEND
  8
0
  0
POLYLINE
  8
21
 66
1
 10
0.0000
 20
0.0000
 30
0.0000
 40
0.0000
 41
0.0000
 70
1
  0
VERTEX
  8
21
 10
19.7320
 20
10.7090
 30
0.0000
  0
VERTEX
  8
21
 10
17.9320
 20
10.7090
 30
0.0000
 42
1.0000
  0
VERTEX
  8
21
 10
17.9320
 20
10.4550
 30
0.0000
  0
VERTEX
  8
21
 10
19.7320
 20
10.4550
 30
0.0000
 42
1.0000
  0
SEQEND
  8
0
  0
POLYLINE
  8
21
 66
1
 10
0.0000
 20
0.0000
 30
0.0000
 40
0.0000
 41
0.0000
 70
1
  0
VERTEX
  8
21
 10
11.5320
 20
10.7090
 30
0.0000
  0
VERTEX
  8
21
 10
9.7320
 20
10.7090
 30
0.0000
 42
1.0000
  0
VERTEX
  8
21
 10
9.7320
 20
10.4550
 30
0.0000
  0
VERTEX
  8
21
 10
11.5320
 20
10.4550
 30
0.0000
 42
1.0000
  0
SEQEND
  8
0
  0
POLYLINE
  8
21
 66
1
 10
0.0000
 20
0.0000
 30
0.0000
 40
0.0000
 41
0.0000
 70
1
  0
VERTEX
  8
21
 10
9.6050
 20
10.5820
 30
0.0000
  0
VERTEX
  8
21
 10
9.6050
 20
6.1820
 30
0.0000
 42
1.0000
  0
VERTEX
  8
21
 10
9.8590
 20
6.1820
 30
0.0000
  0
VERTEX
  8
21
 10
9.8590
 20
10.5820
 30
0.0000
 42
1.0000
  0
SEQEND
  8
0
  0
POLYLINE
  8
21
 66
1
 10
0.0000
 20
0.0000
 30
0.0000
 40
0.0000
 41
0.0000
 70
1
  0
VERTEX
  8
21
 10
19.7320
 20
6.3090
 30
0.0000
  0
VERTEX
  8
21
 10
9.7320
 20
6.3090
 30
0.0000
 42
1.0000
  0
VERTEX
  8
21
 10
9.7320
 20
6.0550
 30
0.0000
  0
VERTEX
  8
21
 10
19.7320
 20
6.0550
 30
0.0000
 42
1.0000
  0
SEQEND
  8
0
  0
POLYLINE
  8
21
 66
1
 10
0.0000
 20
0.0000
 30
0.0000
 40
0.0000
 41
0.0000
 70
1
  0
VERTEX
  8
21
 10
19.8590
 20
10.5820
 30
0.0000
  0
VERTEX
  8
21
 10
19.8590
 20
11.1820
 30
0.0000
 42
1.0000
  0
VERTEX
  8
21
 10
19.6050
 20
11.1820
 30
0.0000
  0
VERTEX
  8
21
 10
19.6050
 20
10.5820
 30
0.0000
 42
1.0000
  0
SEQEND
  8
0
  0
POLYLINE
  8
21
 66
1
 10
0.0000
 20
0.0000
 30
0.0000
 40
0.0000
 41
0.0000
 70
1
  0
VERTEX
  8
21
 10
19.7320
 20
11.3090
 30
0.0000
  0
VERTEX
  8
21
 10
17.9320
 20
11.3090
 30
0.0000
 42
1.0000
  0
VERTEX
  8
21
 10
17.9320
 20
11.0550
 30
0.0000
  0
VERTEX
  8
21
 10
19.7320
 20
11.0550
 30
0.0000
 42
1.0000
  0
SEQEND
  8
0
  0
POLYLINE
  8
21
 66
1
 10
0.0000
 20
0.0000
 30
0.0000
 40
0.0000
 41
0.0000
 70
1
  0
VERTEX
  8
21
 10
17.8050
 20
11.1820
 30
0.0000
  0
VERTEX
  8
21
 10
17.8050
 20
10.5820
 30
0.0000
 42
1.0000
  0
VERTEX
  8
21
 10
18.0590
 20
10.5820
 30
0.0000
  0
VERTEX
  8
21
 10
18.0590
 20
11.1820
 30
0.0000
 42
1.0000
  0
SEQEND
  8
0
  0
POLYLINE
  8
21
 66
1
 10
0.0000
 20
0.0000
 30
0.0000
 40
0.0000
 41
0.0000
 70
1
  0
VERTEX
  8
21
 10
17.9320
 20
10.7090
 30
0.0000
  0
VERTEX
  8
21
 10
11.5320
 20
10.7090
 30
0.0000
 42
1.0000
  0
VERTEX
  8
21
 10
11.5320
 20
10.4550
 30
0.0000
  0
VERTEX
  8
21
 10
17.9320
 20
10.4550
 30
0.0000
 42
1.0000
  0
SEQEND
  8
0
  0
POLYLINE
  8
21
 66
1
 10
0.0000
 20
0.0000
 30
0.0000
 40
0.0000
 41
0.0000
 70
1
  0
VERTEX
  8
21
 10
11.6590
 20
10.5820
 30
0.0000
  0
VERTEX
  8
21
 10
11.6590
 20
11.1820
 30
0.0000
 42
1.0000
  0
VERTEX
  8
21
 10
11.4050
 20
11.1820
 30
0.0000
  0
VERTEX
  8
21
 10
11.4050
 20
10.5820
 30
0.0000
 42
1.0000
  0
SEQEND
  8
0
  0
POLYLINE
  8
21
 66
1
 10
0.0000
 20
0.0000
 30
0.0000
 40
0.0000
 41
0.0000
 70
1
  0
VERTEX
  8
21
 10
11.5320
 20
11.3090
 30
0.0000
  0
VERTEX
  8
21
 10
9.7320
 20
11.3090
 30
0.0000
 42
1.0000
  0
VERTEX
  8
21
 10
9.7320
 20
11.0550
 30
0.0000
  0
VERTEX
  8
21
 10
11.5320
 20
11.0550
 30
0.0000
 42
1.0000
  0
SEQEND
  8
0
  0
POLYLINE
  8
21
 66
1
 10
0.0000
 20
0.0000
 30
0.0000
 40
0.0000
 41
0.0000
 70
1
  0
VERTEX
  8
21
 10
9.6050
 20
11.1820
 30
0.0000
  0
VERTEX
  8
21
 10
9.6050
 20
10.5820
 30
0.0000
 42
1.0000
  0
VERTEX
  8
21
 10
9.8590
 20
10.5820
 30
0.0000
  0
VERTEX
  8
21
 10
9.8590
 20
11.1820
 30
0.0000
 42
1.0000
  0
SEQEND
  8
0
  0
POLYLINE
  8
21
 66
1
 10
0.0000
 20
0.0000
 30
0.0000
 40
0.0000
 41
0.0000
 70
1
  0
VERTEX
  8
21
 10
19.7955
 20
15.0020
 30
0.0000
  0
VERTEX
  8
21
 10
19.7955
 20
17.0020
 30
0.0000
 42
1.0000
  0
VERTEX
  8
21
 10
19.6685
 20
17.0020
 30
0.0000
  0
VERTEX
  8
21
 10
19.6685
 20
15.0020
 30
0.0000
 42
1.0000
  0
SEQEND
  8
0
  0
POLYLINE
  8
21
 66
1
 10
0.0000
 20
0.0000
 30
0.0000
 40
0.0000
 41
0.0000
 70
1
  0
VERTEX
  8
21
 10
9.8590
 20
14.5020
 30
0.0000
  0
VERTEX
  8
21
 10
9.8590
 20
17.5020
 30
0.0000
 42
1.0000
  0
VERTEX
  8
21
 10
9.6050
 20
17.5020
 30
0.0000
  0
VERTEX
  8
21
 10
9.6050
 20
14.5020
 30
0.0000
 42
1.0000
  0
SEQEND
  8
0
  0
POLYLINE
  8
21
 66
1
 10
0.0000
 20
0.0000
 30
0.0000
 40
0.0000
 41
0.0000
 70
1
  0
VERTEX
  8
21
 10
19.8590
 20
13.8020
 30
0.0000
  0
VERTEX
  8
21
 10
19.8590
 20
18.2020
 30
0.0000
 42
1.0000
  0
VERTEX
  8
21
 10
19.6050
 20
18.2020
 30
0.0000
  0
VERTEX
  8
21
 10
19.6050
 20
13.8020
 30
0.0000
 42
1.0000
  0
SEQEND
  8
0
  0
POLYLINE
  8
21
 66
1
 10
0.0000
 20
0.0000
 30
0.0000
 40
0.0000
 41
0.0000
 70
1
  0
VERTEX
  8
21
 10
19.7320
 20
18.3290
 30
0.0000
  0
VERTEX
  8
21
 10
17.9320
 20
18.3290
 30
0.0000
 42
1.0000
  0
VERTEX
  8
21
 10
17.9320
 20
18.0750
 30
0.0000
  0
VERTEX
  8
21
 10
19.7320
 20
18.0750
 30
0.0000
 42
1.0000
  0
SEQEND
  8
0
  0
POLYLINE
  8
21
 66
1
 10
0.0000
 20
0.0000
 30
0.0000
 40
0.0000
 41
0.0000
 70
1
  0
VERTEX
  8
21
 10
11.5320
 20
18.3290
 30
0.0000
  0
VERTEX
  8
21
 10
9.7320
 20
18.3290
 30
0.0000
 42
1.0000
  0
VERTEX
  8
21
 10
9.7320
 20
18.0750
 30
0.0000
  0
VERTEX
  8
21
 10
11.5320
 20
18.0750
 30
0.0000
 42
1.0000
  0
SEQEND
  8
0
  0
POLYLINE
  8
21
 66
1
 10
0.0000
 20
0.0000
 30
0.0000
 40
0.0000
 41
0.0000
 70
1
  0
VERTEX
  8
21
 10
9.6050
 20
18.2020
 30
0.0000
  0
VERTEX
  8
21
 10
9.6050
 20
13.8020
 30
0.0000
 42
1.0000
  0
VERTEX
  8
21
 10
9.8590
 20
13.8020
 30
0.0000
  0
VERTEX
  8
21
 10
9.8590
 20
18.2020
 30
0.0000
 42
1.0000
  0
SEQEND
  8
0
  0
POLYLINE
  8
21
 66
1
 10
0.0000
 20
0.0000
 30
0.0000
 40
0.0000
 41
0.0000
 70
1
  0
VERTEX
  8
21
 10
19.7320
 20
13.9290
 30
0.0000
  0
VERTEX
  8
21
 10
9.7320
 20
13.9290
 30
0.0000
 42
1.0000
  0
VERTEX
  8
21
 10
9.7320
 20
13.6750
 30
0.0000
  0
VERTEX
  8
21
 10
19.7320
 20
13.6750
 30
0.0000
 42
1.0000
  0
SEQEND
  8
0
  0
POLYLINE
  8
21
 66
1
 10
0.0000
 20
0.0000
 30
0.0000
 40
0.0000
 41
0.0000
 70
1
  0
VERTEX
  8
21
 10
19.8590
 20
18.2020
 30
0.0000
  0
VERTEX
  8
21
 10
19.8590
 20
18.8020
 30
0.0000
 42
1.0000
  0
VERTEX
  8
21
 10
19.6050
 20
18.8020
 30
0.0000
  0
VERTEX
  8
21
 10
19.6050
 20
18.2020
 30
0.0000
 42
1.0000
  0
SEQEND
  8
0
  0
POLYLINE
  8
21
 66
1
 10
0.0000
 20
0.0000
 30
0.0000
 40
0.0000
 41
0.0000
 70
1
  0
VERTEX
  8
21
 10
19.7320
 20
18.9290
 30
0.0000
  0
VERTEX
  8
21
 10
17.9320
 20
18.9290
 30
0.0000
 42
1.0000
  0
VERTEX
  8
21
 10
17.9320
 20
18.6750
 30
0.0000
  0
VERTEX
  8
21
 10
19.7320
 20
18.6750
 30
0.0000
 42
1.0000
  0
SEQEND
  8
0
  0
POLYLINE
  8
21
 66
1
 10
0.0000
 20
0.0000
 30
0.0000
 40
0.0000
 41
0.0000
 70
1
  0
VERTEX
  8
21
 10
17.8050
 20
18.8020
 30
0.0000
  0
VERTEX
  8
21
 10
17.8050
 20
18.2020
 30
0.0000
 42
1.0000
  0
VERTEX
  8
21
 10
18.0590
 20
18.2020
 30
0.0000
  0
VERTEX
  8
21
 10
18.0590
 20
18.8020
 30
0.0000
 42
1.0000
  0
SEQEND
  8
0
  0
POLYLINE
  8
21
 66
1
 10
0.0000
 20
0.0000
 30
0.0000
 40
0.0000
 41
0.0000
 70
1
  0
VERTEX
  8
21
 10
17.9320
 20
18.3290
 30
0.0000
  0
VERTEX
  8
21
 10
11.5320
 20
18.3290
 30
0.0000
 42
1.0000
  0
VERTEX
  8
21
 10
11.5320
 20
18.0750
 30
0.0000
  0
VERTEX
  8
21
 10
17.9320
 20
18.0750
 30
0.0000
 42
1.0000
  0
SEQEND
  8
0
  0
POLYLINE
  8
21
 66
1
 10
0.0000
 20
0.0000
 30
0.0000
 40
0.0000
 41
0.0000
 70
1
  0
VERTEX
  8
21
 10
11.6590
 20
18.2020
 30
0.0000
  0
VERTEX
  8
21
 10
11.6590
 20
18.8020
 30
0.0000
 42
1.0000
  0
VERTEX
  8
21
 10
11.4050
 20
18.8020
 30
0.0000
  0
VERTEX
  8
21
 10
11.4050
 20
18.2020
 30
0.0000
 42
1.0000
  0
SEQEND
  8
0
  0
POLYLINE
  8
21
 66
1
 10
0.0000
 20
0.0000
 30
0.0000
 40
0.0000
 41
0.0000
 70
1
  0
VERTEX
  8
21
 10
11.5320
 20
18.9290
 30
0.0000
  0
VERTEX
  8
21
 10
9.7320
 20
18.9290
 30
0.0000
 42
1.0000
  0
VERTEX
  8
21
 10
9.7320
 20
18.6750
 30
0.0000
  0
VERTEX
  8
21
 10
11.5320
 20
18.6750
 30
0.0000
 42
1.0000
  0
SEQEND
  8
0
  0
POLYLINE
  8
21
 66
1
 10
0.0000
 20
0.0000
 30
0.0000
 40
0.0000
 41
0.0000
 70
1
  0
VERTEX
  8
21
 10
9.6050
 20
18.8020
 30
0.0000
  0
VERTEX
  8
21
 10
9.6050
 20
18.2020
 30
0.0000
 42
1.0000
  0
VERTEX
  8
21
 10
9.8590
 20
18.2020
 30
0.0000
  0
VERTEX
  8
21
 10
9.8590
 20
18.8020
 30
0.0000
 42
1.0000
  0
SEQEND
  8
0
  0
POLYLINE
  8
21
 66
1
 10
0.0000
 20
0.0000
 30
0.0000
 40
0.0000
 41
0.0000
 70
1
  0
VERTEX
  8
21
 10
11.9584
 20
-6.6565
 30
0.0000
  0
VERTEX
  8
21
 10
12.3584
 20
-7.3365
 30
0.0000
 42
1.0000
  0
VERTEX
  8
21
 10
12.5336
 20
-7.2335
 30
0.0000
  0
VERTEX
  8
21
 10
12.1336
 20
-6.5535
 30
0.0000
 42
1.0000
  0
SEQEND
  8
0
  0
POLYLINE
  8
21
 66
1
 10
0.0000
 20
0.0000
 30
0.0000
 40
0.0000
 41
0.0000
 70
1
  0
VERTEX
  8
21
 10
12.5336
 20
-7.3365
 30
0.0000
  0
VERTEX
  8
21
 10
12.9336
 20
-6.6565
 30
0.0000
 42
1.0000
  0
VERTEX
  8
21
 10
12.7584
 20
-6.5535
 30
0.0000
  0
VERTEX
  8
21
 10
12.3584
 20
-7.2335
 30
0.0000
 42
1.0000
  0
SEQEND
  8
0
  0
POLYLINE
  8
21
 66
1
 10
0.0000
 20
0.0000
 30
0.0000
 40
0.0000
 41
0.0000
 70
1
  0
VERTEX
  8
21
 10
12.8460
 20
-6.5034
 30
0.0000
  0
VERTEX
  8
21
 10
12.0460
 20
-6.5034
 30
0.0000
 42
1.0000
  0
VERTEX
  8
21
 10
12.0460
 20
-6.7066
 30
0.0000
  0
VERTEX
  8
21
 10
12.8460
 20
-6.7066
 30
0.0000
 42
1.0000
  0
SEQEND
  8
0
  0
POLYLINE
  8
21
 66
1
 10
0.0000
 20
0.0000
 30
0.0000
 40
0.0000
 41
0.0000
 70
1
  0
VERTEX
  8
21
 10
12.8460
 20
-7.2834
 30
0.0000
  0
VERTEX
  8
21
 10
12.0460
 20
-7.2834
 30
0.0000
 42
1.0000
  0
VERTEX
  8
21
 10
12.0460
 20
-7.4866
 30
0.0000
  0
VERTEX
  8
21
 10
12.8460
 20
-7.4866
 30
0.0000
 42
1.0000
  0
SEQEND
  8
0
  0
POLYLINE
  8
21
 66
1
 10
0.0000
 20
0.0000
 30
0.0000
 40
0.0000
 41
0.0000
 70
1
  0
VERTEX
  8
21
 10
11.9474
 20
-7.3920
 30
0.0000
  0
VERTEX
  8
21
 10
11.9474
 20
-7.6220
 30
0.0000
 42
1.0000
  0
VERTEX
  8
21
 10
12.1506
 20
-7.6220
 30
0.0000
  0
VERTEX
  8
21
 10
12.1506
 20
-7.3920
 30
0.0000
 42
1.0000
  0
SEQEND
  8
0
  0
POLYLINE
  8
21
 66
1
 10
0.0000
 20
0.0000
 30
0.0000
 40
0.0000
 41
0.0000
 70
1
  0
VERTEX
  8
21
 10
12.7474
 20
-7.1520
 30
0.0000
  0
VERTEX
  8
21
 10
12.7474
 20
-7.3820
 30
0.0000
 42
1.0000
  0
VERTEX
  8
21
 10
12.9506
 20
-7.3820
 30
0.0000
  0
VERTEX
  8
21
 10
12.9506
 20
-7.1520
 30
0.0000
 42
1.0000
  0
SEQEND
  8
0
  0
INSERT
  8
31
  2
RECT
 10
12.4460
 20
-5.8120
 30
0.0000
 41
1.0000
 42
0.8000
 43
1.0000
 50
90.0000
  0
INSERT
  8
31
  2
RECT
 10
12.4460
 20
-8.4120
 30
0.0000
 41
1.0000
 42
0.8000
 43
1.0000
 50
90.0000
  0
POLYLINE
  8
21
 66
1
 10
0.0000
 20
0.0000
 30
0.0000
 40
0.0000
 41
0.0000
 70
1
  0
VERTEX
  8
21
 10
10.1804
 20
-6.6565
 30
0.0000
  0
VERTEX
  8
21
 10
10.5804
 20
-7.3365
 30
0.0000
 42
1.0000
  0
VERTEX
  8
21
 10
10.7556
 20
-7.2335
 30
0.0000
  0
VERTEX
  8
21
 10
10.3556
 20
-6.5535
 30
0.0000
 42
1.0000
  0
SEQEND
  8
0
  0
POLYLINE
  8
21
 66
1
 10
0.0000
 20
0.0000
 30
0.0000
 40
0.0000
 41
0.0000
 70
1
  0
VERTEX
  8
21
 10
10.7556
 20
-7.3365
 30
0.0000
  0
VERTEX
  8
21
 10
11.1556
 20
-6.6565
 30
0.0000
 42
1.0000
  0
VERTEX
  8
21
 10
10.9804
 20
-6.5535
 30
0.0000
  0
VERTEX
  8
21
 10
10.5804
 20
-7.2335
 30
0.0000
 42
1.0000
  0
SEQEND
  8
0
  0
POLYLINE
  8
21
 66
1
 10
0.0000
 20
0.0000
 30
0.0000
 40
0.0000
 41
0.0000
 70
1
  0
VERTEX
  8
21
 10
11.0680
 20
-6.5034
 30
0.0000
  0
VERTEX
  8
21
 10
10.2680
 20
-6.5034
 30
0.0000
 42
1.0000
  0
VERTEX
  8
21
 10
10.2680
 20
-6.7066
 30
0.0000
  0
VERTEX
  8
21
 10
11.0680
 20
-6.7066
 30
0.0000
 42
1.0000
  0
SEQEND
  8
0
  0
POLYLINE
  8
21
 66
1
 10
0.0000
 20
0.0000
 30
0.0000
 40
0.0000
 41
0.0000
 70
1
  0
VERTEX
  8
21
 10
11.0680
 20
-7.2834
 30
0.0000
  0
VERTEX
  8
21
 10
10.2680
 20
-7.2834
 30
0.0000
 42
1.0000
  0
VERTEX
  8
21
 10
10.2680
 20
-7.4866
 30
0.0000
  0
VERTEX
  8
21
 10
11.0680
 20
-7.4866
 30
0.0000
 42
1.0000
  0
SEQEND
  8
0
  0
POLYLINE
  8
21
 66
1
 10
0.0000
 20
0.0000
 30
0.0000
 40
0.0000
 41
0.0000
 70
1
  0
VERTEX
  8
21
 10
10.1694
 20
-7.3920
 30
0.0000
  0
VERTEX
  8
21
 10
10.1694
 20
-7.6220
 30
0.0000
 42
1.0000
  0
VERTEX
  8
21
 10
10.3726
 20
-7.6220
 30
0.0000
  0
VERTEX
  8
21
 10
10.3726
 20
-7.3920
 30
0.0000
 42
1.0000
  0
SEQEND
  8
0
  0
POLYLINE
  8
21
 66
1
 10
0.0000
 20
0.0000
 30
0.0000
 40
0.0000
 41
0.0000
 70
1
  0
VERTEX
  8
21
 10
10.9694
 20
-7.1520
 30
0.0000
  0
VERTEX
  8
21
 10
10.9694
 20
-7.3820
 30
0.0000
 42
1.0000
  0
VERTEX
  8
21
 10
11.1726
 20
-7.3820
 30
0.0000
  0
VERTEX
  8
21
 10
11.1726
 20
-7.1520
 30
0.0000
 42
1.0000
  0
SEQEND
  8
0
  0
INSERT
  8
31
  2
RECT
 10
10.6680
 20
-5.8120
 30
0.0000
 41
1.0000
 42
0.8000
 43
1.0000
 50
90.0000
  0
INSERT
  8
31
  2
RECT
 10
10.6680
 20
-8.4120
 30
0.0000
 41
1.0000
 42
0.8000
 43
1.0000
 50
90.0000
  0
POLYLINE
  8
21
 66
1
 10
0.0000
 20
0.0000
 30
0.0000
 40
0.0000
 41
0.0000
 70
1
  0
VERTEX
  8
21
 10
38.5555
 20
-20.7214
 30
0.0000
  0
VERTEX
  8
21
 10
37.8755
 20
-21.1214
 30
0.0000
 42
1.0000
  0
VERTEX
  8
21
 10
37.9785
 20
-21.2966
 30
0.0000
  0
VERTEX
  8
21
 10
38.6585
 20
-20.8966
 30
0.0000
 42
1.0000
  0
SEQEND
  8
0
  0
POLYLINE
  8
21
 66
1
 10
0.0000
 20
0.0000
 30
0.0000
 40
0.0000
 41
0.0000
 70
1
  0
VERTEX
  8
21
 10
37.8755
 20
-21.2966
 30
0.0000
  0
VERTEX
  8
21
 10
38.5555
 20
-21.6966
 30
0.0000
 42
1.0000
  0
VERTEX
  8
21
 10
38.6585
 20
-21.5214
 30
0.0000
  0
VERTEX
  8
21
 10
37.9785
 20
-21.1214
 30
0.0000
 42
1.0000
  0
SEQEND
  8
0
  0
POLYLINE
  8
21
 66
1
 10
0.0000
 20
0.0000
 30
0.0000
 40
0.0000
 41
0.0000
 70
1
  0
VERTEX
  8
21
 10
38.7086
 20
-21.6090
 30
0.0000
  0
VERTEX
  8
21
 10
38.7086
 20
-20.8090
 30
0.0000
 42
1.0000
  0
VERTEX
  8
21
 10
38.5054
 20
-20.8090
 30
0.0000
  0
VERTEX
  8
21
 10
38.5054
 20
-21.6090
 30
0.0000
 42
1.0000
  0
SEQEND
  8
0
  0
POLYLINE
  8
21
 66
1
 10
0.0000
 20
0.0000
 30
0.0000
 40
0.0000
 41
0.0000
 70
1
  0
VERTEX
  8
21
 10
37.9286
 20
-21.6090
 30
0.0000
  0
VERTEX
  8
21
 10
37.9286
 20
-20.8090
 30
0.0000
 42
1.0000
  0
VERTEX
  8
21
 10
37.7254
 20
-20.8090
 30
0.0000
  0
VERTEX
  8
21
 10
37.7254
 20
-21.6090
 30
0.0000
 42
1.0000
  0
SEQEND
  8
0
  0
POLYLINE
  8
21
 66
1
 10
0.0000
 20
0.0000
 30
0.0000
 40
0.0000
 41
0.0000
 70
1
  0
VERTEX
  8
21
 10
37.8200
 20
-20.7104
 30
0.0000
  0
VERTEX
  8
21
 10
37.5900
 20
-20.7104
 30
0.0000
 42
1.0000
  0
VERTEX
  8
21
 10
37.5900
 20
-20.9136
 30
0.0000
  0
VERTEX
  8
21
 10
37.8200
 20
-20.9136
 30
0.0000
 42
1.0000
  0
SEQEND
  8
0
  0
POLYLINE
  8
21
 66
1
 10
0.0000
 20
0.0000
 30
0.0000
 40
0.0000
 41
0.0000
 70
1
  0
VERTEX
  8
21
 10
38.0600
 20
-21.5104
 30
0.0000
  0
VERTEX
  8
21
 10
37.8300
 20
-21.5104
 30
0.0000
 42
1.0000
  0
VERTEX
  8
21
 10
37.8300
 20
-21.7136
 30
0.0000
  0
VERTEX
  8
21
 10
38.0600
 20
-21.7136
 30
0.0000
 42
1.0000
  0
SEQEND
  8
0
  0
INSERT
  8
31
  2
RECT
 10
39.4000
 20
-21.2090
 30
0.0000
 41
1.0000
 42
0.8000
 43
1.0000
 50
0.0000
  0
INSERT
  8
31
  2
RECT
 10
36.8000
 20
-21.2090
 30
0.0000
 41
1.0000
 42
0.8000
 43
1.0000
 50
0.0000
  0
POLYLINE
  8
21
 66
1
 10
0.0000
 20
0.0000
 30
0.0000
 40
0.0000
 41
0.0000
 70
1
  0
VERTEX
  8
21
 10
5.8420
 20
-10.6680
 30
0.0000
  0
VERTEX
  8
21
 10
9.3980
 20
-10.6680
 30
0.0000
 42
1.0000
  0
VERTEX
  8
21
 10
9.3980
 20
-10.4648
 30
0.0000
  0
VERTEX
  8
21
 10
5.8420
 20
-10.4648
 30
0.0000
 42
1.0000
  0
SEQEND
  8
0
  0
POLYLINE
  8
21
 66
1
 10
0.0000
 20
0.0000
 30
0.0000
 40
0.0000
 41
0.0000
 70
1
  0
VERTEX
  8
21
 10
9.2964
 20
-10.5664
 30
0.0000
  0
VERTEX
  8
21
 10
9.2964
 20
-17.1196
 30
0.0000
 42
1.0000
  0
VERTEX
  8
21
 10
9.4996
 20
-17.1196
 30
0.0000
  0
VERTEX
  8
21
 10
9.4996
 20
-10.5664
 30
0.0000
 42
1.0000
  0
SEQEND
  8
0
  0
POLYLINE
  8
21
 66
1
 10
0.0000
 20
0.0000
 30
0.0000
 40
0.0000
 41
0.0000
 70
1
  0
VERTEX
  8
21
 10
9.3980
 20
-17.0180
 30
0.0000
  0
VERTEX
  8
21
 10
5.8420
 20
-17.0180
 30
0.0000
 42
1.0000
  0
VERTEX
  8
21
 10
5.8420
 20
-17.2212
 30
0.0000
  0
VERTEX
  8
21
 10
9.3980
 20
-17.2212
 30
0.0000
 42
1.0000
  0
SEQEND
  8
0
  0
POLYLINE
  8
21
 66
1
 10
0.0000
 20
0.0000
 30
0.0000
 40
0.0000
 41
0.0000
 70
1
  0
VERTEX
  8
21
 10
5.9436
 20
-17.1196
 30
0.0000
  0
VERTEX
  8
21
 10
5.9436
 20
-10.5664
 30
0.0000
 42
1.0000
  0
VERTEX
  8
21
 10
5.7404
 20
-10.5664
 30
0.0000
  0
VERTEX
  8
21
 10
5.7404
 20
-17.1196
 30
0.0000
 42
1.0000
  0
SEQEND
  8
0
  0
INSERT
  8
31
  2
RECT
 10
10.7188
 20
-16.1544
 30
0.0000
 41
1.2192
 42
2.2352
 43
1.0000
 50
90.0000
  0
INSERT
  8
31
  2
RECT
 10
10.7188
 20
-13.8430
 30
0.0000
 41
1.2192
 42
2.2352
 43
1.0000
 50
90.0000
  0
INSERT
  8
31
  2
RECT
 10
10.7188
 20
-11.5316
 30
0.0000
 41
1.2192
 42
2.2352
 43
1.0000
 50
90.0000
  0
INSERT
  8
31
  2
RECT
 10
4.5210
 20
-13.8430
 30
0.0000
 41
3.6000
 42
2.2000
 43
1.0000
 50
90.0000
  0
POLYLINE
  8
21
 66
1
 10
0.0000
 20
0.0000
 30
0.0000
 40
0.0000
 41
0.0000
 70
1
  0
VERTEX
  8
21
 10
8.9380
 20
-0.9648
 30
0.0000
  0
VERTEX
  8
21
 10
7.3180
 20
-0.9648
 30
0.0000
 42
1.0000
  0
VERTEX
  8
21
 10
7.3180
 20
-1.1172
 30
0.0000
  0
VERTEX
  8
21
 10
8.9380
 20
-1.1172
 30
0.0000
 42
1.0000
  0
SEQEND
  8
0
  0
POLYLINE
  8
21
 66
1
 10
0.0000
 20
0.0000
 30
0.0000
 40
0.0000
 41
0.0000
 70
1
  0
VERTEX
  8
21
 10
7.3180
 20
1.7268
 30
0.0000
  0
VERTEX
  8
21
 10
8.9380
 20
1.7268
 30
0.0000
 42
1.0000
  0
VERTEX
  8
21
 10
8.9380
 20
1.8792
 30
0.0000
  0
VERTEX
  8
21
 10
7.3180
 20
1.8792
 30
0.0000
 42
1.0000
  0
SEQEND
  8
0
  0
POLYLINE
  8
21
 66
1
 10
0.0000
 20
0.0000
 30
0.0000
 40
0.0000
 41
0.0000
 70
1
  0
VERTEX
  8
21
 10
7.3942
 20
0.8090
 30
0.0000
  0
VERTEX
  8
21
 10
7.3942
 20
0.9030
 30
0.0000
 42
1.0000
  0
VERTEX
  8
21
 10
7.2418
 20
0.9030
 30
0.0000
  0
VERTEX
  8
21
 10
7.2418
 20
0.8090
 30
0.0000
 42
1.0000
  0
SEQEND
  8
0
  0
POLYLINE
  8
21
 66
1
 10
0.0000
 20
0.0000
 30
0.0000
 40
0.0000
 41
0.0000
 70
1
  0
VERTEX
  8
21
 10
7.3942
 20
-0.1410
 30
0.0000
  0
VERTEX
  8
21
 10
7.3942
 20
-0.0470
 30
0.0000
 42
1.0000
  0
VERTEX
  8
21
 10
7.2418
 20
-0.0470
 30
0.0000
  0
VERTEX
  8
21
 10
7.2418
 20
-0.1410
 30
0.0000
 42
1.0000
  0
SEQEND
  8
0
  0
POLYLINE
  8
21
 66
1
 10
0.0000
 20
0.0000
 30
0.0000
 40
0.0000
 41
0.0000
 70
1
  0
VERTEX
  8
21
 10
7.3942
 20
1.7090
 30
0.0000
  0
VERTEX
  8
21
 10
7.3942
 20
1.8030
 30
0.0000
 42
1.0000
  0
VERTEX
  8
21
 10
7.2418
 20
1.8030
 30
0.0000
  0
VERTEX
  8
21
 10
7.2418
 20
1.7090
 30
0.0000
 42
1.0000
  0
SEQEND
  8
0
  0
POLYLINE
  8
21
 66
1
 10
0.0000
 20
0.0000
 30
0.0000
 40
0.0000
 41
0.0000
 70
1
  0
VERTEX
  8
21
 10
7.3942
 20
-1.0410
 30
0.0000
  0
VERTEX
  8
21
 10
7.3942
 20
-0.9470
 30
0.0000
 42
1.0000
  0
VERTEX
  8
21
 10
7.2418
 20
-0.9470
 30
0.0000
  0
VERTEX
  8
21
 10
7.2418
 20
-1.0410
 30
0.0000
 42
1.0000
  0
SEQEND
  8
0
  0
POLYLINE
  8
21
 66
1
 10
0.0000
 20
0.0000
 30
0.0000
 40
0.0000
 41
0.0000
 70
1
  0
VERTEX
  8
21
 10
8.8618
 20
-0.9470
 30
0.0000
  0
VERTEX
  8
21
 10
8.8618
 20
-1.0410
 30
0.0000
 42
1.0000
  0
VERTEX
  8
21
 10
9.0142
 20
-1.0410
 30
0.0000
  0
VERTEX
  8
21
 10
9.0142
 20
-0.9470
 30
0.0000
 42
1.0000
  0
SEQEND
  8
0
  0
POLYLINE
  8
21
 66
1
 10
0.0000
 20
0.0000
 30
0.0000
 40
0.0000
 41
0.0000
 70
1
  0
VERTEX
  8
21
 10
8.8618
 20
1.8030
 30
0.0000
  0
VERTEX
  8
21
 10
8.8618
 20
1.7090
 30
0.0000
 42
1.0000
  0
VERTEX
  8
21
 10
9.0142
 20
1.7090
 30
0.0000
  0
VERTEX
  8
21
 10
9.0142
 20
1.8030
 30
0.0000
 42
1.0000
  0
SEQEND
  8
0
  0
POLYLINE
  8
21
 66
1
 10
0.0000
 20
0.0000
 30
0.0000
 40
0.0000
 41
0.0000
 70
1
  0
VERTEX
  8
21
 10
8.8618
 20
-0.0470
 30
0.0000
  0
VERTEX
  8
21
 10
8.8618
 20
-0.1410
 30
0.0000
 42
1.0000
  0
VERTEX
  8
21
 10
9.0142
 20
-0.1410
 30
0.0000
  0
VERTEX
  8
21
 10
9.0142
 20
-0.0470
 30
0.0000
 42
1.0000
  0
SEQEND
  8
0
  0
POLYLINE
  8
21
 66
1
 10
0.0000
 20
0.0000
 30
0.0000
 40
0.0000
 41
0.0000
 70
1
  0
VERTEX
  8
21
 10
8.8618
 20
0.9030
 30
0.0000
  0
VERTEX
  8
21
 10
8.8618
 20
0.8090
 30
0.0000
 42
1.0000
  0
VERTEX
  8
21
 10
9.0142
 20
0.8090
 30
0.0000
  0
VERTEX
  8
21
 10
9.0142
 20
0.9030
 30
0.0000
 42
1.0000
  0
SEQEND
  8
0
  0
CIRCLE
  8
21
 10
7.6780
 20
1.3810
 30
0.0000
 40
0.0238
  0
CIRCLE
  8
21
 10
7.6780
 20
1.3810
 30
0.0000
 40
0.1762
  0
INSERT
  8
31
  2
RECT
 10
6.8280
 20
1.3310
 30
0.0000
 41
0.5500
 42
1.2000
 43
1.0000
 50
270.0000
  0
INSERT
  8
31
  2
RECT
 10
6.8280
 20
0.3810
 30
0.0000
 41
0.5500
 42
1.2000
 43
1.0000
 50
270.0000
  0
INSERT
  8
31
  2
RECT
 10
6.8280
 20
-0.5690
 30
0.0000
 41
0.5500
 42
1.2000
 43
1.0000
 50
270.0000
  0
INSERT
  8
31
  2
RECT
 10
9.4280
 20
-0.5690
 30
0.0000
 41
0.5500
 42
1.2000
 43
1.0000
 50
270.0000
  0
INSERT
  8
31
  2
RECT
 10
9.4280
 20
0.3810
 30
0.0000
 41
0.5500
 42
1.2000
 43
1.0000
 50
270.0000
  0
INSERT
  8
31
  2
RECT
 10
9.4280
 20
1.3310
 30
0.0000
 41
0.5500
 42
1.2000
 43
1.0000
 50
270.0000
  0
POLYLINE
  8
21
 66
1
 10
0.0000
 20
0.0000
 30
0.0000
 40
0.0000
 41
0.0000
 70
1
  0
VERTEX
  8
21
 10
24.4845
 20
2.0000
 30
0.0000
  0
VERTEX
  8
21
 10
24.4845
 20
2.4500
 30
0.0000
 42
1.0000
  0
VERTEX
  8
21
 10
24.3575
 20
2.4500
 30
0.0000
  0
VERTEX
  8
21
 10
24.3575
 20
2.0000
 30
0.0000
 42
1.0000
  0
SEQEND
  8
0
  0
POLYLINE
  8
21
 66
1
 10
0.0000
 20
0.0000
 30
0.0000
 40
0.0000
 41
0.0000
 70
1
  0
VERTEX
  8
21
 10
24.4210
 20
2.5135
 30
0.0000
  0
VERTEX
  8
21
 10
23.9710
 20
2.5135
 30
0.0000
 42
1.0000
  0
VERTEX
  8
21
 10
23.9710
 20
2.3865
 30
0.0000
  0
VERTEX
  8
21
 10
24.4210
 20
2.3865
 30
0.0000
 42
1.0000
  0
SEQEND
  8
0
  0
POLYLINE
  8
21
 66
1
 10
0.0000
 20
0.0000
 30
0.0000
 40
0.0000
 41
0.0000
 70
1
  0
VERTEX
  8
21
 10
19.9710
 20
2.5135
 30
0.0000
  0
VERTEX
  8
21
 10
19.5210
 20
2.5135
 30
0.0000
 42
1.0000
  0
VERTEX
  8
21
 10
19.5210
 20
2.3865
 30
0.0000
  0
VERTEX
  8
21
 10
19.9710
 20
2.3865
 30
0.0000
 42
1.0000
  0
SEQEND
  8
0
  0
POLYLINE
  8
21
 66
1
 10
0.0000
 20
0.0000
 30
0.0000
 40
0.0000
 41
0.0000
 70
1
  0
VERTEX
  8
21
 10
19.4575
 20
2.4500
 30
0.0000
  0
VERTEX
  8
21
 10
19.4575
 20
2.0000
 30
0.0000
 42
1.0000
  0
VERTEX
  8
21
 10
19.5845
 20
2.0000
 30
0.0000
  0
VERTEX
  8
21
 10
19.5845
 20
2.4500
 30
0.0000
 42
1.0000
  0
SEQEND
  8
0
  0
POLYLINE
  8
21
 66
1
 10
0.0000
 20
0.0000
 30
0.0000
 40
0.0000
 41
0.0000
 70
1
  0
VERTEX
  8
21
 10
19.4575
 20
-2.0000
 30
0.0000
  0
VERTEX
  8
21
 10
19.4575
 20
-2.4500
 30
0.0000
 42
1.0000
  0
VERTEX
  8
21
 10
19.5845
 20
-2.4500
 30
0.0000
  0
VERTEX
  8
21
 10
19.5845
 20
-2.0000
 30
0.0000
 42
1.0000
  0
SEQEND
  8
0
  0
POLYLINE
  8
21
 66
1
 10
0.0000
 20
0.0000
 30
0.0000
 40
0.0000
 41
0.0000
 70
1
  0
VERTEX
  8
21
 10
19.5210
 20
-2.5135
 30
0.0000
  0
VERTEX
  8
21
 10
19.9710
 20
-2.5135
 30
0.0000
 42
1.0000
  0
VERTEX
  8
21
 10
19.9710
 20
-2.3865
 30
0.0000
  0
VERTEX
  8
21
 10
19.5210
 20
-2.3865
 30
0.0000
 42
1.0000
  0
SEQEND
  8
0
  0
POLYLINE
  8
21
 66
1
 10
0.0000
 20
0.0000
 30
0.0000
 40
0.0000
 41
0.0000
 70
1
  0
VERTEX
  8
21
 10
23.9710
 20
-2.5135
 30
0.0000
  0
VERTEX
  8
21
 10
24.4210
 20
-2.5135
 30
0.0000
 42
1.0000
  0
VERTEX
  8
21
 10
24.4210
 20
-2.3865
 30
0.0000
  0
VERTEX
  8
21
 10
23.9710
 20
-2.3865
 30
0.0000
 42
1.0000
  0
SEQEND
  8
0
  0
POLYLINE
  8
21
 66
1
 10
0.0000
 20
0.0000
 30
0.0000
 40
0.0000
 41
0.0000
 70
1
  0
VERTEX
  8
21
 10
24.4845
 20
-2.4500
 30
0.0000
  0
VERTEX
  8
21
 10
24.4845
 20
-2.0000
 30
0.0000
 42
1.0000
  0
VERTEX
  8
21
 10
24.3575
 20
-2.0000
 30
0.0000
  0
VERTEX
  8
21
 10
24.3575
 20
-2.4500
 30
0.0000
 42
1.0000
  0
SEQEND
  8
0
  0
INSERT
  8
21
  2
RECT
 10
20.1085
 20
1.8625
 30
0.0000
 41
0.2250
 42
0.2250
 43
1.0000
 50
0.0000
  0
INSERT
  8
31
  2
RECT112000X44800R50
 10
19.6210
 20
1.7500
 30
0.0000
 41
1.0000
 42
1.0000
 43
1.0000
 50
0.0000
  0
INSERT
  8
31
  2
RECT
 10
19.6210
 20
1.2500
 30
0.0000
 41
0.7000
 42
0.2800
 43
1.0000
 50
0.0000
  0
INSERT
  8
31
  2
RECT
 10
19.6210
 20
0.7500
 30
0.0000
 41
0.7000
 42
0.2800
 43
1.0000
 50
0.0000
  0
INSERT
  8
31
  2
RECT
 10
19.6210
 20
0.2500
 30
0.0000
 41
0.7000
 42
0.2800
 43
1.0000
 50
0.0000
  0
INSERT
  8
31
  2
RECT
 10
19.6210
 20
-0.2500
 30
0.0000
 41
0.7000
 42
0.2800
 43
1.0000
 50
0.0000
  0
INSERT
  8
31
  2
RECT
 10
19.6210
 20
-0.7500
 30
0.0000
 41
0.7000
 42
0.2800
 43
1.0000
 50
0.0000
  0
INSERT
  8
31
  2
RECT
 10
19.6210
 20
-1.2500
 30
0.0000
 41
0.7000
 42
0.2800
 43
1.0000
 50
0.0000
  0
INSERT
  8
31
  2
RECT112000X44800R50
 10
19.6210
 20
-1.7500
 30
0.0000
 41
1.0000
 42
1.0000
 43
1.0000
 50
0.0000
  0
INSERT
  8
31
  2
RECT44800X112000R50
 10
20.2210
 20
-2.3500
 30
0.0000
 41
1.0000
 42
1.0000
 43
1.0000
 50
0.0000
  0
INSERT
  8
31
  2
RECT
 10
20.7210
 20
-2.3500
 30
0.0000
 41
0.2800
 42
0.7000
 43
1.0000
 50
0.0000
  0
INSERT
  8
31
  2
RECT
 10
21.2210
 20
-2.3500
 30
0.0000
 41
0.2800
 42
0.7000
 43
1.0000
 50
0.0000
  0
INSERT
  8
31
  2
RECT
 10
21.7210
 20
-2.3500
 30
0.0000
 41
0.2800
 42
0.7000
 43
1.0000
 50
0.0000
  0
INSERT
  8
31
  2
RECT
 10
22.2210
 20
-2.3500
 30
0.0000
 41
0.2800
 42
0.7000
 43
1.0000
 50
0.0000
  0
INSERT
  8
31
  2
RECT
 10
22.7210
 20
-2.3500
 30
0.0000
 41
0.2800
 42
0.7000
 43
1.0000
 50
0.0000
  0
INSERT
  8
31
  2
RECT
 10
23.2210
 20
-2.3500
 30
0.0000
 41
0.2800
 42
0.7000
 43
1.0000
 50
0.0000
  0
INSERT
  8
31
  2
RECT44800X112000R50
 10
23.7210
 20
-2.3500
 30
0.0000
 41
1.0000
 42
1.0000
 43
1.0000
 50
0.0000
  0
INSERT
  8
31
  2
RECT112000X44800R50
 10
24.3210
 20
-1.7500
 30
0.0000
 41
1.0000
 42
1.0000
 43
1.0000
 50
0.0000
  0
INSERT
  8
31
  2
RECT
 10
24.3210
 20
-1.2500
 30
0.0000
 41
0.7000
 42
0.2800
 43
1.0000
 50
0.0000
  0
INSERT
  8
31
  2
RECT
 10
24.3210
 20
-0.7500
 30
0.0000
 41
0.7000
 42
0.2800
 43
1.0000
 50
0.0000
  0
INSERT
  8
31
  2
RECT
 10
24.3210
 20
-0.2500
 30
0.0000
 41
0.7000
 42
0.2800
 43
1.0000
 50
0.0000
  0
INSERT
  8
31
  2
RECT
 10
24.3210
 20
0.2500
 30
0.0000
 41
0.7000
 42
0.2800
 43
1.0000
 50
0.0000
  0
INSERT
  8
31
  2
RECT
 10
24.3210
 20
0.7500
 30
0.0000
 41
0.7000
 42
0.2800
 43
1.0000
 50
0.0000
  0
INSERT
  8
31
  2
RECT
 10
24.3210
 20
1.2500
 30
0.0000
 41
0.7000
 42
0.2800
 43
1.0000
 50
0.0000
  0
INSERT
  8
31
  2
RECT112000X44800R50
 10
24.3210
 20
1.7500
 30
0.0000
 41
1.0000
 42
1.0000
 43
1.0000
 50
0.0000
  0
INSERT
  8
31
  2
RECT44800X112000R50
 10
23.7210
 20
2.3500
 30
0.0000
 41
1.0000
 42
1.0000
 43
1.0000
 50
0.0000
  0
INSERT
  8
31
  2
RECT
 10
23.2210
 20
2.3500
 30
0.0000
 41
0.2800
 42
0.7000
 43
1.0000
 50
0.0000
  0
INSERT
  8
31
  2
RECT
 10
22.7210
 20
2.3500
 30
0.0000
 41
0.2800
 42
0.7000
 43
1.0000
 50
0.0000
  0
INSERT
  8
31
  2
RECT
 10
22.2210
 20
2.3500
 30
0.0000
 41
0.2800
 42
0.7000
 43
1.0000
 50
0.0000
  0
INSERT
  8
31
  2
RECT
 10
21.7210
 20
2.3500
 30
0.0000
 41
0.2800
 42
0.7000
 43
1.0000
 50
0.0000
  0
INSERT
  8
31
  2
RECT
 10
21.2210
 20
2.3500
 30
0.0000
 41
0.2800
 42
0.7000
 43
1.0000
 50
0.0000
  0
INSERT
  8
31
  2
RECT
 10
20.7210
 20
2.3500
 30
0.0000
 41
0.2800
 42
0.7000
 43
1.0000
 50
0.0000
  0
INSERT
  8
31
  2
RECT44800X112000R50
 10
20.2210
 20
2.3500
 30
0.0000
 41
1.0000
 42
1.0000
 43
1.0000
 50
0.0000
  0
INSERT
  8
31
  2
RECT
 10
19.5560
 20
2.4150
 30
0.0000
 41
0.2500
 42
0.2500
 43
1.0000
 50
0.0000
  0
POLYLINE
  8
21
 66
1
 10
0.0000
 20
0.0000
 30
0.0000
 40
0.0000
 41
0.0000
 70
1
  0
VERTEX
  8
21
 10
70.3704
 20
-12.0700
 30
0.0000
  0
VERTEX
  8
21
 10
70.3704
 20
-15.8780
 30
0.0000
 42
1.0000
  0
VERTEX
  8
21
 10
70.5736
 20
-15.8780
 30
0.0000
  0
VERTEX
  8
21
 10
70.5736
 20
-12.0700
 30
0.0000
 42
1.0000
  0
SEQEND
  8
0
  0
POLYLINE
  8
21
 66
1
 10
0.0000
 20
0.0000
 30
0.0000
 40
0.0000
 41
0.0000
 70
1
  0
VERTEX
  8
21
 10
65.7736
 20
-15.8780
 30
0.0000
  0
VERTEX
  8
21
 10
65.7736
 20
-12.0700
 30
0.0000
 42
1.0000
  0
VERTEX
  8
21
 10
65.5704
 20
-12.0700
 30
0.0000
  0
VERTEX
  8
21
 10
65.5704
 20
-15.8780
 30
0.0000
 42
1.0000
  0
SEQEND
  8
0
  0
CIRCLE
  8
21
 10
64.8970
 20
-16.8910
 30
0.0000
 40
0.3302
  0
INSERT
  8
31
  2
RECT
 10
66.1670
 20
-16.5700
 30
0.0000
 41
0.6000
 42
2.2000
 43
1.0000
 50
0.0000
  0
INSERT
  8
31
  2
RECT
 10
67.4370
 20
-16.5700
 30
0.0000
 41
0.6000
 42
2.2000
 43
1.0000
 50
0.0000
  0
INSERT
  8
31
  2
RECT
 10
68.7070
 20
-16.5700
 30
0.0000
 41
0.6000
 42
2.2000
 43
1.0000
 50
0.0000
  0
INSERT
  8
31
  2
RECT
 10
69.9770
 20
-16.5700
 30
0.0000
 41
0.6000
 42
2.2000
 43
1.0000
 50
0.0000
  0
INSERT
  8
31
  2
RECT
 10
69.9770
 20
-11.3700
 30
0.0000
 41
0.6000
 42
2.2000
 43
1.0000
 50
0.0000
  0
INSERT
  8
31
  2
RECT
 10
68.7070
 20
-11.3700
 30
0.0000
 41
0.6000
 42
2.2000
 43
1.0000
 50
0.0000
  0
INSERT
  8
31
  2
RECT
 10
67.4370
 20
-11.3700
 30
0.0000
 41
0.6000
 42
2.2000
 43
1.0000
 50
0.0000
  0
INSERT
  8
31
  2
RECT
 10
66.1670
 20
-11.3700
 30
0.0000
 41
0.6000
 42
2.2000
 43
1.0000
 50
0.0000
  0
POLYLINE
  8
21
 66
1
 10
0.0000
 20
0.0000
 30
0.0000
 40
0.0000
 41
0.0000
 70
1
  0
VERTEX
  8
21
 10
75.6070
 20
13.1285
 30
0.0000
  0
VERTEX
  8
21
 10
74.5070
 20
13.1285
 30
0.0000
 42
1.0000
  0
VERTEX
  8
21
 10
74.5070
 20
13.0015
 30
0.0000
  0
VERTEX
  8
21
 10
75.6070
 20
13.0015
 30
0.0000
 42
1.0000
  0
SEQEND
  8
0
  0
POLYLINE
  8
21
 66
1
 10
0.0000
 20
0.0000
 30
0.0000
 40
0.0000
 41
0.0000
 70
1
  0
VERTEX
  8
21
 10
74.5070
 20
11.0015
 30
0.0000
  0
VERTEX
  8
21
 10
75.6070
 20
11.0015
 30
0.0000
 42
1.0000
  0
VERTEX
  8
21
 10
75.6070
 20
11.1285
 30
0.0000
  0
VERTEX
  8
21
 10
74.5070
 20
11.1285
 30
0.0000
 42
1.0000
  0
SEQEND
  8
0
  0
INSERT
  8
31
  2
RECT
 10
74.2070
 20
12.7150
 30
0.0000
 41
0.4000
 42
0.7000
 43
1.0000
 50
270.0000
  0
INSERT
  8
31
  2
RECT
 10
74.2070
 20
12.0650
 30
0.0000
 41
0.4000
 42
0.7000
 43
1.0000
 50
270.0000
  0
INSERT
  8
31
  2
RECT
 10
74.2070
 20
11.4150
 30
0.0000
 41
0.4000
 42
0.7000
 43
1.0000
 50
270.0000
  0
INSERT
  8
31
  2
RECT
 10
75.9070
 20
11.4150
 30
0.0000
 41
0.4000
 42
0.7000
 43
1.0000
 50
270.0000
  0
INSERT
  8
31
  2
RECT
 10
75.9070
 20
12.7150
 30
0.0000
 41
0.4000
 42
0.7000
 43
1.0000
 50
270.0000
  0
POLYLINE
  8
21
 66
1
 10
0.0000
 20
0.0000
 30
0.0000
 40
0.0000
 41
0.0000
 70
1
  0
VERTEX
  8
21
 10
75.6070
 20
19.9865
 30
0.0000
  0
VERTEX
  8
21
 10
74.5070
 20
19.9865
 30
0.0000
 42
1.0000
  0
VERTEX
  8
21
 10
74.5070
 20
19.8595
 30
0.0000
  0
VERTEX
  8
21
 10
75.6070
 20
19.8595
 30
0.0000
 42
1.0000
  0
SEQEND
  8
0
  0
POLYLINE
  8
21
 66
1
 10
0.0000
 20
0.0000
 30
0.0000
 40
0.0000
 41
0.0000
 70
1
  0
VERTEX
  8
21
 10
74.5070
 20
17.8595
 30
0.0000
  0
VERTEX
  8
21
 10
75.6070
 20
17.8595
 30
0.0000
 42
1.0000
  0
VERTEX
  8
21
 10
75.6070
 20
17.9865
 30
0.0000
  0
VERTEX
  8
21
 10
74.5070
 20
17.9865
 30
0.0000
 42
1.0000
  0
SEQEND
  8
0
  0
INSERT
  8
31
  2
RECT
 10
74.2070
 20
19.5730
 30
0.0000
 41
0.4000
 42
0.7000
 43
1.0000
 50
270.0000
  0
INSERT
  8
31
  2
RECT
 10
74.2070
 20
18.9230
 30
0.0000
 41
0.4000
 42
0.7000
 43
1.0000
 50
270.0000
  0
INSERT
  8
31
  2
RECT
 10
74.2070
 20
18.2730
 30
0.0000
 41
0.4000
 42
0.7000
 43
1.0000
 50
270.0000
  0
INSERT
  8
31
  2
RECT
 10
75.9070
 20
18.2730
 30
0.0000
 41
0.4000
 42
0.7000
 43
1.0000
 50
270.0000
  0
INSERT
  8
31
  2
RECT
 10
75.9070
 20
19.5730
 30
0.0000
 41
0.4000
 42
0.7000
 43
1.0000
 50
270.0000
  0
POLYLINE
  8
21
 66
1
 10
0.0000
 20
0.0000
 30
0.0000
 40
0.0000
 41
0.0000
 70
1
  0
VERTEX
  8
21
 10
75.6070
 20
16.5575
 30
0.0000
  0
VERTEX
  8
21
 10
74.5070
 20
16.5575
 30
0.0000
 42
1.0000
  0
VERTEX
  8
21
 10
74.5070
 20
16.4305
 30
0.0000
  0
VERTEX
  8
21
 10
75.6070
 20
16.4305
 30
0.0000
 42
1.0000
  0
SEQEND
  8
0
  0
POLYLINE
  8
21
 66
1
 10
0.0000
 20
0.0000
 30
0.0000
 40
0.0000
 41
0.0000
 70
1
  0
VERTEX
  8
21
 10
74.5070
 20
14.4305
 30
0.0000
  0
VERTEX
  8
21
 10
75.6070
 20
14.4305
 30
0.0000
 42
1.0000
  0
VERTEX
  8
21
 10
75.6070
 20
14.5575
 30
0.0000
  0
VERTEX
  8
21
 10
74.5070
 20
14.5575
 30
0.0000
 42
1.0000
  0
SEQEND
  8
0
  0
INSERT
  8
31
  2
RECT
 10
74.2070
 20
16.1440
 30
0.0000
 41
0.4000
 42
0.7000
 43
1.0000
 50
270.0000
  0
INSERT
  8
31
  2
RECT
 10
74.2070
 20
15.4940
 30
0.0000
 41
0.4000
 42
0.7000
 43
1.0000
 50
270.0000
  0
INSERT
  8
31
  2
RECT
 10
74.2070
 20
14.8440
 30
0.0000
 41
0.4000
 42
0.7000
 43
1.0000
 50
270.0000
  0
INSERT
  8
31
  2
RECT
 10
75.9070
 20
14.8440
 30
0.0000
 41
0.4000
 42
0.7000
 43
1.0000
 50
270.0000
  0
INSERT
  8
31
  2
RECT
 10
75.9070
 20
16.1440
 30
0.0000
 41
0.4000
 42
0.7000
 43
1.0000
 50
270.0000
  0
INSERT
  8
21
  2
RECT
 10
3.6810
 20
23.1140
 30
0.0000
 41
0.2500
 42
0.2500
 43
1.0000
 50
270.0000
  0
INSERT
  8
31
  2
RECT
 10
2.8060
 20
23.1140
 30
0.0000
 41
0.8000
 42
0.8000
 43
1.0000
 50
270.0000
  0
INSERT
  8
31
  2
RECT
 10
4.3060
 20
23.1140
 30
0.0000
 41
0.8000
 42
0.8000
 43
1.0000
 50
270.0000
  0
INSERT
  8
21
  2
RECT
 10
3.6810
 20
20.3200
 30
0.0000
 41
0.2500
 42
0.2500
 43
1.0000
 50
270.0000
  0
INSERT
  8
31
  2
RECT
 10
2.8060
 20
20.3200
 30
0.0000
 41
0.8000
 42
0.8000
 43
1.0000
 50
270.0000
  0
INSERT
  8
31
  2
RECT
 10
4.3060
 20
20.3200
 30
0.0000
 41
0.8000
 42
0.8000
 43
1.0000
 50
270.0000
  0
INSERT
  8
21
  2
RECT
 10
3.4310
 20
17.5260
 30
0.0000
 41
0.2500
 42
0.2500
 43
1.0000
 50
90.0000
  0
INSERT
  8
31
  2
RECT
 10
4.3060
 20
17.5260
 30
0.0000
 41
0.8000
 42
0.8000
 43
1.0000
 50
90.0000
  0
INSERT
  8
31
  2
RECT
 10
2.8060
 20
17.5260
 30
0.0000
 41
0.8000
 42
0.8000
 43
1.0000
 50
90.0000
  0
INSERT
  8
21
  2
RECT
 10
79.7560
 20
19.0480
 30
0.0000
 41
0.2500
 42
0.2500
 43
1.0000
 50
0.0000
  0
INSERT
  8
31
  2
RECT
 10
79.7560
 20
18.1730
 30
0.0000
 41
0.8000
 42
0.8000
 43
1.0000
 50
0.0000
  0
INSERT
  8
31
  2
RECT
 10
79.7560
 20
19.6730
 30
0.0000
 41
0.8000
 42
0.8000
 43
1.0000
 50
0.0000
  0
INSERT
  8
21
  2
RECT
 10
79.7560
 20
15.6190
 30
0.0000
 41
0.2500
 42
0.2500
 43
1.0000
 50
0.0000
  0
INSERT
  8
31
  2
RECT
 10
79.7560
 20
14.7440
 30
0.0000
 41
0.8000
 42
0.8000
 43
1.0000
 50
0.0000
  0
INSERT
  8
31
  2
RECT
 10
79.7560
 20
16.2440
 30
0.0000
 41
0.8000
 42
0.8000
 43
1.0000
 50
0.0000
  0
INSERT
  8
21
  2
RECT
 10
79.7560
 20
12.1900
 30
0.0000
 41
0.2500
 42
0.2500
 43
1.0000
 50
0.0000
  0
INSERT
  8
31
  2
RECT
 10
79.7560
 20
11.3150
 30
0.0000
 41
0.8000
 42
0.8000
 43
1.0000
 50
0.0000
  0
INSERT
  8
31
  2
RECT
 10
79.7560
 20
12.8150
 30
0.0000
 41
0.8000
 42
0.8000
 43
1.0000
 50
0.0000
  0
POLYLINE
  8
21
 66
1
 10
0.0000
 20
0.0000
 30
0.0000
 40
0.0000
 41
0.0000
 70
1
  0
VERTEX
  8
21
 10
72.7050
 20
-8.0635
 30
0.0000
  0
VERTEX
  8
21
 10
74.1050
 20
-8.0635
 30
0.0000
 42
1.0000
  0
VERTEX
  8
21
 10
74.1050
 20
-7.9365
 30
0.0000
  0
VERTEX
  8
21
 10
72.7050
 20
-7.9365
 30
0.0000
 42
1.0000
  0
SEQEND
  8
0
  0
POLYLINE
  8
21
 66
1
 10
0.0000
 20
0.0000
 30
0.0000
 40
0.0000
 41
0.0000
 70
1
  0
VERTEX
  8
21
 10
74.1050
 20
-8.0635
 30
0.0000
  0
VERTEX
  8
21
 10
81.2050
 20
-8.0635
 30
0.0000
 42
1.0000
  0
VERTEX
  8
21
 10
81.2050
 20
-7.9365
 30
0.0000
  0
VERTEX
  8
21
 10
74.1050
 20
-7.9365
 30
0.0000
 42
1.0000
  0
SEQEND
  8
0
  0
POLYLINE
  8
21
 66
1
 10
0.0000
 20
0.0000
 30
0.0000
 40
0.0000
 41
0.0000
 70
1
  0
VERTEX
  8
21
 10
81.2685
 20
-8.0000
 30
0.0000
  0
VERTEX
  8
21
 10
81.2685
 20
8.0000
 30
0.0000
 42
1.0000
  0
VERTEX
  8
21
 10
81.1415
 20
8.0000
 30
0.0000
  0
VERTEX
  8
21
 10
81.1415
 20
-8.0000
 30
0.0000
 42
1.0000
  0
SEQEND
  8
0
  0
POLYLINE
  8
21
 66
1
 10
0.0000
 20
0.0000
 30
0.0000
 40
0.0000
 41
0.0000
 70
1
  0
VERTEX
  8
21
 10
81.2050
 20
8.0635
 30
0.0000
  0
VERTEX
  8
21
 10
74.1050
 20
8.0635
 30
0.0000
 42
1.0000
  0
VERTEX
  8
21
 10
74.1050
 20
7.9365
 30
0.0000
  0
VERTEX
  8
21
 10
81.2050
 20
7.9365
 30
0.0000
 42
1.0000
  0
SEQEND
  8
0
  0
POLYLINE
  8
21
 66
1
 10
0.0000
 20
0.0000
 30
0.0000
 40
0.0000
 41
0.0000
 70
1
  0
VERTEX
  8
21
 10
74.1050
 20
8.0635
 30
0.0000
  0
VERTEX
  8
21
 10
73.7050
 20
8.0635
 30
0.0000
 42
1.0000
  0
VERTEX
  8
21
 10
73.7050
 20
7.9365
 30
0.0000
  0
VERTEX
  8
21
 10
74.1050
 20
7.9365
 30
0.0000
 42
1.0000
  0
SEQEND
  8
0
  0
POLYLINE
  8
21
 66
1
 10
0.0000
 20
0.0000
 30
0.0000
 40
0.0000
 41
0.0000
 70
1
  0
VERTEX
  8
21
 10
51.7050
 20
-7.9365
 30
0.0000
  0
VERTEX
  8
21
 10
49.2050
 20
-7.9365
 30
0.0000
 42
1.0000
  0
VERTEX
  8
21
 10
49.2050
 20
-8.0635
 30
0.0000
  0
VERTEX
  8
21
 10
51.7050
 20
-8.0635
 30
0.0000
 42
1.0000
  0
SEQEND
  8
0
  0
POLYLINE
  8
21
 66
1
 10
0.0000
 20
0.0000
 30
0.0000
 40
0.0000
 41
0.0000
 70
1
  0
VERTEX
  8
21
 10
49.2685
 20
-8.0000
 30
0.0000
  0
VERTEX
  8
21
 10
49.2685
 20
8.0000
 30
0.0000
 42
1.0000
  0
VERTEX
  8
21
 10
49.1415
 20
8.0000
 30
0.0000
  0
VERTEX
  8
21
 10
49.1415
 20
-8.0000
 30
0.0000
 42
1.0000
  0
SEQEND
  8
0
  0
POLYLINE
  8
21
 66
1
 10
0.0000
 20
0.0000
 30
0.0000
 40
0.0000
 41
0.0000
 70
1
  0
VERTEX
  8
21
 10
49.2050
 20
7.9365
 30
0.0000
  0
VERTEX
  8
21
 10
51.7050
 20
7.9365
 30
0.0000
 42
1.0000
  0
VERTEX
  8
21
 10
51.7050
 20
8.0635
 30
0.0000
  0
VERTEX
  8
21
 10
49.2050
 20
8.0635
 30
0.0000
 42
1.0000
  0
SEQEND
  8
0
  0
POLYLINE
  8
21
 66
1
 10
0.0000
 20
0.0000
 30
0.0000
 40
0.0000
 41
0.0000
 70
1
  0
VERTEX
  8
21
 10
74.1685
 20
-8.0000
 30
0.0000
  0
VERTEX
  8
21
 10
74.1685
 20
8.0000
 30
0.0000
 42
1.0000
  0
VERTEX
  8
21
 10
74.0415
 20
8.0000
 30
0.0000
  0
VERTEX
  8
21
 10
74.0415
 20
-8.0000
 30
0.0000
 42
1.0000
  0
SEQEND
  8
0
  0
INSERT
  8
31
  2
RECT
 10
52.7050
 20
-7.5850
 30
0.0000
 41
1.4500
 42
0.7000
 43
1.0000
 50
270.0000
  0
INSERT
  8
31
  2
RECT
 10
53.7050
 20
-7.5850
 30
0.0000
 41
1.4500
 42
0.7000
 43
1.0000
 50
270.0000
  0
INSERT
  8
31
  2
RECT
 10
54.7050
 20
-7.5850
 30
0.0000
 41
1.4500
 42
0.7000
 43
1.0000
 50
270.0000
  0
INSERT
  8
31
  2
RECT
 10
55.7050
 20
-7.5850
 30
0.0000
 41
1.4500
 42
0.7000
 43
1.0000
 50
270.0000
  0
INSERT
  8
31
  2
RECT
 10
56.7050
 20
-7.5850
 30
0.0000
 41
1.4500
 42
0.7000
 43
1.0000
 50
270.0000
  0
INSERT
  8
31
  2
RECT
 10
57.7050
 20
-7.5850
 30
0.0000
 41
1.4500
 42
0.7000
 43
1.0000
 50
270.0000
  0
INSERT
  8
31
  2
RECT
 10
58.7050
 20
-7.5850
 30
0.0000
 41
1.4500
 42
0.7000
 43
1.0000
 50
270.0000
  0
INSERT
  8
31
  2
RECT
 10
59.7050
 20
-7.5850
 30
0.0000
 41
1.4500
 42
0.7000
 43
1.0000
 50
270.0000
  0
INSERT
  8
31
  2
RECT
 10
60.7050
 20
-7.5850
 30
0.0000
 41
1.4500
 42
0.7000
 43
1.0000
 50
270.0000
  0
INSERT
  8
31
  2
RECT
 10
61.7050
 20
-7.5850
 30
0.0000
 41
1.4500
 42
0.7000
 43
1.0000
 50
270.0000
  0
INSERT
  8
31
  2
RECT
 10
62.7050
 20
-7.5850
 30
0.0000
 41
1.4500
 42
0.7000
 43
1.0000
 50
270.0000
  0
INSERT
  8
31
  2
RECT
 10
63.7050
 20
-7.5850
 30
0.0000
 41
1.4500
 42
0.7000
 43
1.0000
 50
270.0000
  0
INSERT
  8
31
  2
RECT
 10
64.7050
 20
-7.5850
 30
0.0000
 41
1.4500
 42
0.7000
 43
1.0000
 50
270.0000
  0
INSERT
  8
31
  2
RECT
 10
65.7050
 20
-7.5850
 30
0.0000
 41
1.4500
 42
0.7000
 43
1.0000
 50
270.0000
  0
INSERT
  8
31
  2
RECT
 10
66.7050
 20
-7.5850
 30
0.0000
 41
1.4500
 42
0.7000
 43
1.0000
 50
270.0000
  0
INSERT
  8
31
  2
RECT
 10
67.7050
 20
-7.5850
 30
0.0000
 41
1.4500
 42
0.7000
 43
1.0000
 50
270.0000
  0
INSERT
  8
31
  2
RECT
 10
68.7050
 20
-7.5850
 30
0.0000
 41
1.4500
 42
0.7000
 43
1.0000
 50
270.0000
  0
INSERT
  8
31
  2
RECT
 10
69.7050
 20
-7.5850
 30
0.0000
 41
1.4500
 42
0.7000
 43
1.0000
 50
270.0000
  0
INSERT
  8
31
  2
RECT
 10
70.7050
 20
-7.5850
 30
0.0000
 41
1.4500
 42
0.7000
 43
1.0000
 50
270.0000
  0
INSERT
  8
31
  2
RECT
 10
71.7050
 20
-7.5850
 30
0.0000
 41
1.4500
 42
0.7000
 43
1.0000
 50
270.0000
  0
INSERT
  8
31
  2
RECT
 10
71.7050
 20
7.5850
 30
0.0000
 41
1.4500
 42
0.7000
 43
1.0000
 50
270.0000
  0
INSERT
  8
31
  2
RECT
 10
70.7050
 20
7.5850
 30
0.0000
 41
1.4500
 42
0.7000
 43
1.0000
 50
270.0000
  0
INSERT
  8
31
  2
RECT
 10
69.7050
 20
7.5850
 30
0.0000
 41
1.4500
 42
0.7000
 43
1.0000
 50
270.0000
  0
INSERT
  8
31
  2
RECT
 10
68.7050
 20
7.5850
 30
0.0000
 41
1.4500
 42
0.7000
 43
1.0000
 50
270.0000
  0
INSERT
  8
31
  2
RECT
 10
67.7050
 20
7.5850
 30
0.0000
 41
1.4500
 42
0.7000
 43
1.0000
 50
270.0000
  0
INSERT
  8
31
  2
RECT
 10
66.7050
 20
7.5850
 30
0.0000
 41
1.4500
 42
0.7000
 43
1.0000
 50
270.0000
  0
INSERT
  8
31
  2
RECT
 10
65.7050
 20
7.5850
 30
0.0000
 41
1.4500
 42
0.7000
 43
1.0000
 50
270.0000
  0
INSERT
  8
31
  2
RECT
 10
64.7050
 20
7.5850
 30
0.0000
 41
1.4500
 42
0.7000
 43
1.0000
 50
270.0000
  0
INSERT
  8
31
  2
RECT
 10
63.7050
 20
7.5850
 30
0.0000
 41
1.4500
 42
0.7000
 43
1.0000
 50
270.0000
  0
INSERT
  8
31
  2
RECT
 10
62.7050
 20
7.5850
 30
0.0000
 41
1.4500
 42
0.7000
 43
1.0000
 50
270.0000
  0
INSERT
  8
31
  2
RECT
 10
61.7050
 20
7.5850
 30
0.0000
 41
1.4500
 42
0.7000
 43
1.0000
 50
270.0000
  0
INSERT
  8
31
  2
RECT
 10
60.7050
 20
7.5850
 30
0.0000
 41
1.4500
 42
0.7000
 43
1.0000
 50
270.0000
  0
INSERT
  8
31
  2
RECT
 10
59.7050
 20
7.5850
 30
0.0000
 41
1.4500
 42
0.7000
 43
1.0000
 50
270.0000
  0
INSERT
  8
31
  2
RECT
 10
58.7050
 20
7.5850
 30
0.0000
 41
1.4500
 42
0.7000
 43
1.0000
 50
270.0000
  0
INSERT
  8
31
  2
RECT
 10
57.7050
 20
7.5850
 30
0.0000
 41
1.4500
 42
0.7000
 43
1.0000
 50
270.0000
  0
INSERT
  8
31
  2
RECT
 10
56.7050
 20
7.5850
 30
0.0000
 41
1.4500
 42
0.7000
 43
1.0000
 50
270.0000
  0
INSERT
  8
31
  2
RECT
 10
55.7050
 20
7.5850
 30
0.0000
 41
1.4500
 42
0.7000
 43
1.0000
 50
270.0000
  0
INSERT
  8
31
  2
RECT
 10
54.7050
 20
7.5850
 30
0.0000
 41
1.4500
 42
0.7000
 43
1.0000
 50
270.0000
  0
INSERT
  8
31
  2
RECT
 10
53.7050
 20
7.5850
 30
0.0000
 41
1.4500
 42
0.7000
 43
1.0000
 50
270.0000
  0
INSERT
  8
31
  2
RECT
 10
52.7050
 20
7.5850
 30
0.0000
 41
1.4500
 42
0.7000
 43
1.0000
 50
270.0000
  0
INSERT
  8
31
  2
RECT
 10
72.7050
 20
7.5850
 30
0.0000
 41
1.4500
 42
0.7000
 43
1.0000
 50
270.0000
  0
POLYLINE
  8
21
 66
1
 10
0.0000
 20
0.0000
 30
0.0000
 40
0.0000
 41
0.0000
 70
1
  0
VERTEX
  8
21
 10
29.8500
 20
-3.5820
 30
0.0000
  0
VERTEX
  8
21
 10
29.8500
 20
-2.1820
 30
0.0000
 42
1.0000
  0
VERTEX
  8
21
 10
29.8000
 20
-2.1820
 30
0.0000
  0
VERTEX
  8
21
 10
29.8000
 20
-3.5820
 30
0.0000
 42
1.0000
  0
SEQEND
  8
0
  0
POLYLINE
  8
21
 66
1
 10
0.0000
 20
0.0000
 30
0.0000
 40
0.0000
 41
0.0000
 70
1
  0
VERTEX
  8
21
 10
29.8500
 20
-2.1820
 30
0.0000
  0
VERTEX
  8
21
 10
29.8500
 20
-0.4820
 30
0.0000
 42
1.0000
  0
VERTEX
  8
21
 10
29.8000
 20
-0.4820
 30
0.0000
  0
VERTEX
  8
21
 10
29.8000
 20
-2.1820
 30
0.0000
 42
1.0000
  0
SEQEND
  8
0
  0
POLYLINE
  8
21
 66
1
 10
0.0000
 20
0.0000
 30
0.0000
 40
0.0000
 41
0.0000
 70
1
  0
VERTEX
  8
21
 10
29.8250
 20
-0.4570
 30
0.0000
  0
VERTEX
  8
21
 10
27.3250
 20
-0.4570
 30
0.0000
 42
1.0000
  0
VERTEX
  8
21
 10
27.3250
 20
-0.5070
 30
0.0000
  0
VERTEX
  8
21
 10
29.8250
 20
-0.5070
 30
0.0000
 42
1.0000
  0
SEQEND
  8
0
  0
POLYLINE
  8
21
 66
1
 10
0.0000
 20
0.0000
 30
0.0000
 40
0.0000
 41
0.0000
 70
1
  0
VERTEX
  8
21
 10
27.3000
 20
-0.4820
 30
0.0000
  0
VERTEX
  8
21
 10
27.3000
 20
-3.5820
 30
0.0000
 42
1.0000
  0
VERTEX
  8
21
 10
27.3500
 20
-3.5820
 30
0.0000
  0
VERTEX
  8
21
 10
27.3500
 20
-0.4820
 30
0.0000
 42
1.0000
  0
SEQEND
  8
0
  0
POLYLINE
  8
21
 66
1
 10
0.0000
 20
0.0000
 30
0.0000
 40
0.0000
 41
0.0000
 70
1
  0
VERTEX
  8
21
 10
27.3250
 20
-3.6070
 30
0.0000
  0
VERTEX
  8
21
 10
28.6250
 20
-3.6070
 30
0.0000
 42
1.0000
  0
VERTEX
  8
21
 10
28.6250
 20
-3.5570
 30
0.0000
  0
VERTEX
  8
21
 10
27.3250
 20
-3.5570
 30
0.0000
 42
1.0000
  0
SEQEND
  8
0
  0
POLYLINE
  8
21
 66
1
 10
0.0000
 20
0.0000
 30
0.0000
 40
0.0000
 41
0.0000
 70
1
  0
VERTEX
  8
21
 10
28.6250
 20
-3.6070
 30
0.0000
  0
VERTEX
  8
21
 10
29.8250
 20
-3.6070
 30
0.0000
 42
1.0000
  0
VERTEX
  8
21
 10
29.8250
 20
-3.5570
 30
0.0000
  0
VERTEX
  8
21
 10
28.6250
 20
-3.5570
 30
0.0000
 42
1.0000
  0
SEQEND
  8
0
  0
POLYLINE
  8
21
 66
1
 10
0.0000
 20
0.0000
 30
0.0000
 40
0.0000
 41
0.0000
 70
1
  0
VERTEX
  8
21
 10
28.6000
 20
-3.5820
 30
0.0000
  0
VERTEX
  8
21
 10
28.6000
 20
-3.6320
 30
0.0000
 42
1.0000
  0
VERTEX
  8
21
 10
28.6500
 20
-3.6320
 30
0.0000
  0
VERTEX
  8
21
 10
28.6500
 20
-3.5820
 30
0.0000
 42
1.0000
  0
SEQEND
  8
0
  0
POLYLINE
  8
21
 66
1
 10
0.0000
 20
0.0000
 30
0.0000
 40
0.0000
 41
0.0000
 70
1
  0
VERTEX
  8
21
 10
28.6000
 20
-3.6320
 30
0.0000
  0
VERTEX
  8
21
 10
28.6000
 20
-3.6820
 30
0.0000
 42
1.0000
  0
VERTEX
  8
21
 10
28.6500
 20
-3.6820
 30
0.0000
  0
VERTEX
  8
21
 10
28.6500
 20
-3.6320
 30
0.0000
 42
1.0000
  0
SEQEND
  8
0
  0
POLYLINE
  8
21
 66
1
 10
0.0000
 20
0.0000
 30
0.0000
 40
0.0000
 41
0.0000
 70
1
  0
VERTEX
  8
21
 10
29.8250
 20
-2.2070
 30
0.0000
  0
VERTEX
  8
21
 10
29.9250
 20
-2.2070
 30
0.0000
 42
1.0000
  0
VERTEX
  8
21
 10
29.9250
 20
-2.1570
 30
0.0000
  0
VERTEX
  8
21
 10
29.8250
 20
-2.1570
 30
0.0000
 42
1.0000
  0
SEQEND
  8
0
  0
POLYLINE
  8
21
 66
1
 10
0.0000
 20
0.0000
 30
0.0000
 40
0.0000
 41
0.0000
 70
1
  0
VERTEX
  8
21
 10
29.9000
 20
-2.1820
 30
0.0000
  0
VERTEX
  8
21
 10
29.9000
 20
-3.6820
 30
0.0000
 42
1.0000
  0
VERTEX
  8
21
 10
29.9500
 20
-3.6820
 30
0.0000
  0
VERTEX
  8
21
 10
29.9500
 20
-2.1820
 30
0.0000
 42
1.0000
  0
SEQEND
  8
0
  0
POLYLINE
  8
21
 66
1
 10
0.0000
 20
0.0000
 30
0.0000
 40
0.0000
 41
0.0000
 70
1
  0
VERTEX
  8
21
 10
29.9250
 20
-3.6570
 30
0.0000
  0
VERTEX
  8
21
 10
28.6250
 20
-3.6570
 30
0.0000
 42
1.0000
  0
VERTEX
  8
21
 10
28.6250
 20
-3.7070
 30
0.0000
  0
VERTEX
  8
21
 10
29.9250
 20
-3.7070
 30
0.0000
 42
1.0000
  0
SEQEND
  8
0
  0
POLYLINE
  8
21
 66
1
 10
0.0000
 20
0.0000
 30
0.0000
 40
0.0000
 41
0.0000
 70
1
  0
VERTEX
  8
21
 10
28.6250
 20
-3.6570
 30
0.0000
  0
VERTEX
  8
21
 10
29.8750
 20
-3.6570
 30
0.0000
 42
1.0000
  0
VERTEX
  8
21
 10
29.8750
 20
-3.6070
 30
0.0000
  0
VERTEX
  8
21
 10
28.6250
 20
-3.6070
 30
0.0000
 42
1.0000
  0
SEQEND
  8
0
  0
POLYLINE
  8
21
 66
1
 10
0.0000
 20
0.0000
 30
0.0000
 40
0.0000
 41
0.0000
 70
1
  0
VERTEX
  8
21
 10
29.9000
 20
-3.6320
 30
0.0000
  0
VERTEX
  8
21
 10
29.9000
 20
-2.2320
 30
0.0000
 42
1.0000
  0
VERTEX
  8
21
 10
29.8500
 20
-2.2320
 30
0.0000
  0
VERTEX
  8
21
 10
29.8500
 20
-3.6320
 30
0.0000
 42
1.0000
  0
SEQEND
  8
0
  0
INSERT
  8
31
  2
RECT
 10
29.2250
 20
-2.8820
 30
0.0000
 41
1.2000
 42
1.0000
 43
1.0000
 50
90.0000
  0
INSERT
  8
31
  2
RECT
 10
29.2250
 20
-1.1820
 30
0.0000
 41
1.2000
 42
1.0000
 43
1.0000
 50
90.0000
  0
INSERT
  8
31
  2
RECT
 10
27.9250
 20
-1.1820
 30
0.0000
 41
1.2000
 42
1.0000
 43
1.0000
 50
90.0000
  0
INSERT
  8
31
  2
RECT
 10
27.9250
 20
-2.8820
 30
0.0000
 41
1.2000
 42
1.0000
 43
1.0000
 50
90.0000
  0
INSERT
  8
31
  2
RECT
 10
35.1400
 20
-18.0340
 30
0.0000
 41
1.0000
 42
1.1000
 43
1.0000
 50
180.0000
  0
INSERT
  8
31
  2
RECT
 10
33.4400
 20
-18.0340
 30
0.0000
 41
1.0000
 42
1.1000
 43
1.0000
 50
180.0000
  0
INSERT
  8
31
  2
RECT
 10
13.4230
 20
1.3970
 30
0.0000
 41
1.0000
 42
1.1000
 43
1.0000
 50
180.0000
  0
INSERT
  8
31
  2
RECT
 10
11.7230
 20
1.3970
 30
0.0000
 41
1.0000
 42
1.1000
 43
1.0000
 50
180.0000
  0
INSERT
  8
31
  2
RECT
 10
13.4230
 20
-0.6350
 30
0.0000
 41
1.0000
 42
1.1000
 43
1.0000
 50
180.0000
  0
INSERT
  8
31
  2
RECT
 10
11.7230
 20
-0.6350
 30
0.0000
 41
1.0000
 42
1.1000
 43
1.0000
 50
180.0000
  0
INSERT
  8
31
  2
RECT
 10
18.4540
 20
4.4450
 30
0.0000
 41
1.0000
 42
1.1000
 43
1.0000
 50
0.0000
  0
INSERT
  8
31
  2
RECT
 10
20.1540
 20
4.4450
 30
0.0000
 41
1.0000
 42
1.1000
 43
1.0000
 50
0.0000
  0
INSERT
  8
31
  2
RECT
 10
27.8520
 20
2.2860
 30
0.0000
 41
1.0000
 42
1.1000
 43
1.0000
 50
0.0000
  0
INSERT
  8
31
  2
RECT
 10
29.5520
 20
2.2860
 30
0.0000
 41
1.0000
 42
1.1000
 43
1.0000
 50
0.0000
  0
INSERT
  8
31
  2
RECT
 10
4.4060
 20
21.7170
 30
0.0000
 41
1.0000
 42
1.1000
 43
1.0000
 50
180.0000
  0
INSERT
  8
31
  2
RECT
 10
2.7060
 20
21.7170
 30
0.0000
 41
1.0000
 42
1.1000
 43
1.0000
 50
180.0000
  0
INSERT
  8
31
  2
RECT
 10
4.4060
 20
18.9230
 30
0.0000
 41
1.0000
 42
1.1000
 43
1.0000
 50
180.0000
  0
INSERT
  8
31
  2
RECT
 10
2.7060
 20
18.9230
 30
0.0000
 41
1.0000
 42
1.1000
 43
1.0000
 50
180.0000
  0
INSERT
  8
31
  2
RECT
 10
4.4060
 20
16.1290
 30
0.0000
 41
1.0000
 42
1.1000
 43
1.0000
 50
180.0000
  0
INSERT
  8
31
  2
RECT
 10
2.7060
 20
16.1290
 30
0.0000
 41
1.0000
 42
1.1000
 43
1.0000
 50
180.0000
  0
INSERT
  8
31
  2
RECT
 10
56.6420
 20
15.8360
 30
0.0000
 41
1.0000
 42
1.1000
 43
1.0000
 50
270.0000
  0
INSERT
  8
31
  2
RECT
 10
56.6420
 20
14.1360
 30
0.0000
 41
1.0000
 42
1.1000
 43
1.0000
 50
270.0000
  0
INSERT
  8
31
  2
RECT
 10
41.2750
 20
-0.6740
 30
0.0000
 41
1.0000
 42
1.1000
 43
1.0000
 50
270.0000
  0
INSERT
  8
31
  2
RECT
 10
41.2750
 20
-2.3740
 30
0.0000
 41
1.0000
 42
1.1000
 43
1.0000
 50
270.0000
  0
INSERT
  8
31
  2
RECT
 10
41.9100
 20
3.2140
 30
0.0000
 41
1.0000
 42
1.1000
 43
1.0000
 50
90.0000
  0
INSERT
  8
31
  2
RECT
 10
41.9100
 20
4.9140
 30
0.0000
 41
1.0000
 42
1.1000
 43
1.0000
 50
90.0000
  0
INSERT
  8
31
  2
RECT
 10
34.7980
 20
-8.5970
 30
0.0000
 41
1.0000
 42
1.1000
 43
1.0000
 50
90.0000
  0
INSERT
  8
31
  2
RECT
 10
34.7980
 20
-6.8970
 30
0.0000
 41
1.0000
 42
1.1000
 43
1.0000
 50
90.0000
  0
INSERT
  8
31
  2
RECT
 10
36.3220
 20
-8.5970
 30
0.0000
 41
1.0000
 42
1.1000
 43
1.0000
 50
90.0000
  0
INSERT
  8
31
  2
RECT
 10
36.3220
 20
-6.8970
 30
0.0000
 41
1.0000
 42
1.1000
 43
1.0000
 50
90.0000
  0
INSERT
  8
31
  2
RECT
 10
78.2320
 20
19.7730
 30
0.0000
 41
1.0000
 42
1.1000
 43
1.0000
 50
270.0000
  0
INSERT
  8
31
  2
RECT
 10
78.2320
 20
18.0730
 30
0.0000
 41
1.0000
 42
1.1000
 43
1.0000
 50
270.0000
  0
INSERT
  8
31
  2
RECT
 10
78.2320
 20
16.3440
 30
0.0000
 41
1.0000
 42
1.1000
 43
1.0000
 50
270.0000
  0
INSERT
  8
31
  2
RECT
 10
78.2320
 20
14.6440
 30
0.0000
 41
1.0000
 42
1.1000
 43
1.0000
 50
270.0000
  0
INSERT
  8
31
  2
RECT
 10
78.2320
 20
12.9150
 30
0.0000
 41
1.0000
 42
1.1000
 43
1.0000
 50
270.0000
  0
INSERT
  8
31
  2
RECT
 10
78.2320
 20
11.2150
 30
0.0000
 41
1.0000
 42
1.1000
 43
1.0000
 50
270.0000
  0
INSERT
  8
31
  2
RECT
 10
75.9850
 20
-11.5570
 30
0.0000
 41
1.0000
 42
1.1000
 43
1.0000
 50
0.0000
  0
INSERT
  8
31
  2
RECT
 10
77.6850
 20
-11.5570
 30
0.0000
 41
1.0000
 42
1.1000
 43
1.0000
 50
0.0000
  0
INSERT
  8
31
  2
RECT
 10
31.8770
 20
-16.0410
 30
0.0000
 41
1.0000
 42
1.1000
 43
1.0000
 50
270.0000
  0
INSERT
  8
31
  2
RECT
 10
31.8770
 20
-17.7410
 30
0.0000
 41
1.0000
 42
1.1000
 43
1.0000
 50
270.0000
  0
INSERT
  8
31
  2
RECT
 10
29.0830
 20
10.2480
 30
0.0000
 41
1.0000
 42
1.1000
 43
1.0000
 50
270.0000
  0
INSERT
  8
31
  2
RECT
 10
29.0830
 20
8.5480
 30
0.0000
 41
1.0000
 42
1.1000
 43
1.0000
 50
270.0000
  0
INSERT
  8
31
  2
RECT
 10
36.7030
 20
-16.0410
 30
0.0000
 41
1.0000
 42
1.1000
 43
1.0000
 50
270.0000
  0
INSERT
  8
31
  2
RECT
 10
36.7030
 20
-17.7410
 30
0.0000
 41
1.0000
 42
1.1000
 43
1.0000
 50
270.0000
  0
INSERT
  8
31
  2
RECT
 10
75.9850
 20
-16.6370
 30
0.0000
 41
1.0000
 42
1.1000
 43
1.0000
 50
0.0000
  0
INSERT
  8
31
  2
RECT
 10
77.6850
 20
-16.6370
 30
0.0000
 41
1.0000
 42
1.1000
 43
1.0000
 50
0.0000
  0
INSERT
  8
31
  2
RECT
 10
42.1640
 20
10.5020
 30
0.0000
 41
1.0000
 42
1.1000
 43
1.0000
 50
270.0000
  0
INSERT
  8
31
  2
RECT
 10
42.1640
 20
8.8020
 30
0.0000
 41
1.0000
 42
1.1000
 43
1.0000
 50
270.0000
  0
POLYLINE
  8
21
 66
1
 10
0.0000
 20
0.0000
 30
0.0000
 40
0.0000
 41
0.0000
 70
1
  0
VERTEX
  8
21
 10
6.7313
 20
13.0774
 30
0.0000
  0
VERTEX
  8
21
 10
0.4313
 20
13.0774
 30
0.0000
 42
1.0000
  0
VERTEX
  8
21
 10
0.4313
 20
12.9504
 30
0.0000
  0
VERTEX
  8
21
 10
6.7313
 20
12.9504
 30
0.0000
 42
1.0000
  0
SEQEND
  8
0
  0
POLYLINE
  8
21
 66
1
 10
0.0000
 20
0.0000
 30
0.0000
 40
0.0000
 41
0.0000
 70
1
  0
VERTEX
  8
21
 10
0.3678
 20
13.0139
 30
0.0000
  0
VERTEX
  8
21
 10
0.3678
 20
6.8139
 30
0.0000
 42
1.0000
  0
VERTEX
  8
21
 10
0.4948
 20
6.8139
 30
0.0000
  0
VERTEX
  8
21
 10
0.4948
 20
13.0139
 30
0.0000
 42
1.0000
  0
SEQEND
  8
0
  0
POLYLINE
  8
21
 66
1
 10
0.0000
 20
0.0000
 30
0.0000
 40
0.0000
 41
0.0000
 70
1
  0
VERTEX
  8
21
 10
0.4313
 20
6.7504
 30
0.0000
  0
VERTEX
  8
21
 10
6.7313
 20
6.7504
 30
0.0000
 42
1.0000
  0
VERTEX
  8
21
 10
6.7313
 20
6.8774
 30
0.0000
  0
VERTEX
  8
21
 10
0.4313
 20
6.8774
 30
0.0000
 42
1.0000
  0
SEQEND
  8
0
  0
POLYLINE
  8
21
 66
1
 10
0.0000
 20
0.0000
 30
0.0000
 40
0.0000
 41
0.0000
 70
1
  0
VERTEX
  8
21
 10
6.7948
 20
6.8139
 30
0.0000
  0
VERTEX
  8
21
 10
6.7948
 20
13.0139
 30
0.0000
 42
1.0000
  0
VERTEX
  8
21
 10
6.6677
 20
13.0139
 30
0.0000
  0
VERTEX
  8
21
 10
6.6677
 20
6.8139
 30
0.0000
 42
1.0000
  0
SEQEND
  8
0
  0
INSERT
  8
31
  2
RECT
 10
5.5880
 20
13.3350
 30
0.0000
 41
2.7500
 42
1.4000
 43
1.0000
 50
270.0000
  0
INSERT
  8
31
  2
RECT
 10
5.5880
 20
6.5850
 30
0.0000
 41
2.7500
 42
1.4000
 43
1.0000
 50
270.0000
  0
INSERT
  8
31
  2
RECT
 10
1.5880
 20
13.3350
 30
0.0000
 41
2.7500
 42
1.4000
 43
1.0000
 50
270.0000
  0
INSERT
  8
31
  2
RECT
 10
1.5880
 20
6.5850
 30
0.0000
 41
2.7500
 42
1.4000
 43
1.0000
 50
270.0000
  0
POLYLINE
  8
21
 66
1
 10
0.0000
 20
0.0000
 30
0.0000
 40
0.0000
 41
0.0000
 70
1
  0
VERTEX
  8
21
 10
75.3350
 20
-12.5390
 30
0.0000
  0
VERTEX
  8
21
 10
78.3350
 20
-12.5390
 30
0.0000
 42
1.0000
  0
VERTEX
  8
21
 10
78.3350
 20
-12.4390
 30
0.0000
  0
VERTEX
  8
21
 10
75.3350
 20
-12.4390
 30
0.0000
 42
1.0000
  0
SEQEND
  8
0
  0
POLYLINE
  8
21
 66
1
 10
0.0000
 20
0.0000
 30
0.0000
 40
0.0000
 41
0.0000
 70
1
  0
VERTEX
  8
21
 10
78.2850
 20
-12.4890
 30
0.0000
  0
VERTEX
  8
21
 10
78.2850
 20
-14.6890
 30
0.0000
 42
1.0000
  0
VERTEX
  8
21
 10
78.3850
 20
-14.6890
 30
0.0000
  0
VERTEX
  8
21
 10
78.3850
 20
-12.4890
 30
0.0000
 42
1.0000
  0
SEQEND
  8
0
  0
POLYLINE
  8
21
 66
1
 10
0.0000
 20
0.0000
 30
0.0000
 40
0.0000
 41
0.0000
 70
1
  0
VERTEX
  8
21
 10
78.3350
 20
-14.6390
 30
0.0000
  0
VERTEX
  8
21
 10
75.3350
 20
-14.6390
 30
0.0000
 42
1.0000
  0
VERTEX
  8
21
 10
75.3350
 20
-14.7390
 30
0.0000
  0
VERTEX
  8
21
 10
78.3350
 20
-14.7390
 30
0.0000
 42
1.0000
  0
SEQEND
  8
0
  0
POLYLINE
  8
21
 66
1
 10
0.0000
 20
0.0000
 30
0.0000
 40
0.0000
 41
0.0000
 70
1
  0
VERTEX
  8
21
 10
75.3850
 20
-14.6890
 30
0.0000
  0
VERTEX
  8
21
 10
75.3850
 20
-12.4890
 30
0.0000
 42
1.0000
  0
VERTEX
  8
21
 10
75.2850
 20
-12.4890
 30
0.0000
  0
VERTEX
  8
21
 10
75.2850
 20
-14.6890
 30
0.0000
 42
1.0000
  0
SEQEND
  8
0
  0
INSERT
  8
31
  2
RECT
 10
74.7350
 20
-13.5890
 30
0.0000
 41
0.8000
 42
2.0000
 43
1.0000
 50
0.0000
  0
INSERT
  8
31
  2
RECT
 10
78.9350
 20
-13.5890
 30
0.0000
 41
0.8000
 42
2.0000
 43
1.0000
 50
0.0000
  0
POLYLINE
  8
21
 66
1
 10
0.0000
 20
0.0000
 30
0.0000
 40
0.0000
 41
0.0000
 70
1
  0
VERTEX
  8
21
 10
75.3350
 20
-17.6190
 30
0.0000
  0
VERTEX
  8
21
 10
78.3350
 20
-17.6190
 30
0.0000
 42
1.0000
  0
VERTEX
  8
21
 10
78.3350
 20
-17.5190
 30
0.0000
  0
VERTEX
  8
21
 10
75.3350
 20
-17.5190
 30
0.0000
 42
1.0000
  0
SEQEND
  8
0
  0
POLYLINE
  8
21
 66
1
 10
0.0000
 20
0.0000
 30
0.0000
 40
0.0000
 41
0.0000
 70
1
  0
VERTEX
  8
21
 10
78.2850
 20
-17.5690
 30
0.0000
  0
VERTEX
  8
21
 10
78.2850
 20
-19.7690
 30
0.0000
 42
1.0000
  0
VERTEX
  8
21
 10
78.3850
 20
-19.7690
 30
0.0000
  0
VERTEX
  8
21
 10
78.3850
 20
-17.5690
 30
0.0000
 42
1.0000
  0
SEQEND
  8
0
  0
POLYLINE
  8
21
 66
1
 10
0.0000
 20
0.0000
 30
0.0000
 40
0.0000
 41
0.0000
 70
1
  0
VERTEX
  8
21
 10
78.3350
 20
-19.7190
 30
0.0000
  0
VERTEX
  8
21
 10
75.3350
 20
-19.7190
 30
0.0000
 42
1.0000
  0
VERTEX
  8
21
 10
75.3350
 20
-19.8190
 30
0.0000
  0
VERTEX
  8
21
 10
78.3350
 20
-19.8190
 30
0.0000
 42
1.0000
  0
SEQEND
  8
0
  0
POLYLINE
  8
21
 66
1
 10
0.0000
 20
0.0000
 30
0.0000
 40
0.0000
 41
0.0000
 70
1
  0
VERTEX
  8
21
 10
75.3850
 20
-19.7690
 30
0.0000
  0
VERTEX
  8
21
 10
75.3850
 20
-17.5690
 30
0.0000
 42
1.0000
  0
VERTEX
  8
21
 10
75.2850
 20
-17.5690
 30
0.0000
  0
VERTEX
  8
21
 10
75.2850
 20
-19.7690
 30
0.0000
 42
1.0000
  0
SEQEND
  8
0
  0
INSERT
  8
31
  2
RECT
 10
74.7350
 20
-18.6690
 30
0.0000
 41
0.8000
 42
2.0000
 43
1.0000
 50
0.0000
  0
INSERT
  8
31
  2
RECT
 10
78.9350
 20
-18.6690
 30
0.0000
 41
0.8000
 42
2.0000
 43
1.0000
 50
0.0000
  0
POLYLINE
  8
21
 66
1
 10
0.0000
 20
0.0000
 30
0.0000
 40
0.0000
 41
0.0000
 70
1
  0
VERTEX
  8
21
 10
55.7406
 20
-15.8700
 30
0.0000
  0
VERTEX
  8
21
 10
55.7406
 20
-12.0620
 30
0.0000
 42
1.0000
  0
VERTEX
  8
21
 10
55.5374
 20
-12.0620
 30
0.0000
  0
VERTEX
  8
21
 10
55.5374
 20
-15.8700
 30
0.0000
 42
1.0000
  0
SEQEND
  8
0
  0
POLYLINE
  8
21
 66
1
 10
0.0000
 20
0.0000
 30
0.0000
 40
0.0000
 41
0.0000
 70
1
  0
VERTEX
  8
21
 10
60.3374
 20
-12.0620
 30
0.0000
  0
VERTEX
  8
21
 10
60.3374
 20
-15.8700
 30
0.0000
 42
1.0000
  0
VERTEX
  8
21
 10
60.5406
 20
-15.8700
 30
0.0000
  0
VERTEX
  8
21
 10
60.5406
 20
-12.0620
 30
0.0000
 42
1.0000
  0
SEQEND
  8
0
  0
CIRCLE
  8
21
 10
61.2140
 20
-11.0490
 30
0.0000
 40
0.3302
  0
INSERT
  8
31
  2
RECT
 10
59.9440
 20
-11.3700
 30
0.0000
 41
0.6000
 42
2.2000
 43
1.0000
 50
180.0000
  0
INSERT
  8
31
  2
RECT
 10
58.6740
 20
-11.3700
 30
0.0000
 41
0.6000
 42
2.2000
 43
1.0000
 50
180.0000
  0
INSERT
  8
31
  2
RECT
 10
57.4040
 20
-11.3700
 30
0.0000
 41
0.6000
 42
2.2000
 43
1.0000
 50
180.0000
  0
INSERT
  8
31
  2
RECT
 10
56.1340
 20
-11.3700
 30
0.0000
 41
0.6000
 42
2.2000
 43
1.0000
 50
180.0000
  0
INSERT
  8
31
  2
RECT
 10
56.1340
 20
-16.5700
 30
0.0000
 41
0.6000
 42
2.2000
 43
1.0000
 50
180.0000
  0
INSERT
  8
31
  2
RECT
 10
57.4040
 20
-16.5700
 30
0.0000
 41
0.6000
 42
2.2000
 43
1.0000
 50
180.0000
  0
INSERT
  8
31
  2
RECT
 10
58.6740
 20
-16.5700
 30
0.0000
 41
0.6000
 42
2.2000
 43
1.0000
 50
180.0000
  0
INSERT
  8
31
  2
RECT
 10
59.9440
 20
-16.5700
 30
0.0000
 41
0.6000
 42
2.2000
 43
1.0000
 50
180.0000
  0
POLYLINE
  8
21
 66
1
 10
0.0000
 20
0.0000
 30
0.0000
 40
0.0000
 41
0.0000
 70
1
  0
VERTEX
  8
21
 10
36.3242
 20
-10.8590
 30
0.0000
  0
VERTEX
  8
21
 10
36.3242
 20
-12.5090
 30
0.0000
 42
1.0000
  0
VERTEX
  8
21
 10
36.4258
 20
-12.5090
 30
0.0000
  0
VERTEX
  8
21
 10
36.4258
 20
-10.8590
 30
0.0000
 42
1.0000
  0
SEQEND
  8
0
  0
POLYLINE
  8
21
 66
1
 10
0.0000
 20
0.0000
 30
0.0000
 40
0.0000
 41
0.0000
 70
1
  0
VERTEX
  8
21
 10
33.5258
 20
-12.5090
 30
0.0000
  0
VERTEX
  8
21
 10
33.5258
 20
-10.8590
 30
0.0000
 42
1.0000
  0
VERTEX
  8
21
 10
33.4242
 20
-10.8590
 30
0.0000
  0
VERTEX
  8
21
 10
33.4242
 20
-12.5090
 30
0.0000
 42
1.0000
  0
SEQEND
  8
0
  0
CIRCLE
  8
21
 10
33.7750
 20
-12.2090
 30
0.0000
 40
0.1250
  0
INSERT
  8
31
  2
RECT
 10
33.9500
 20
-12.9090
 30
0.0000
 41
0.4500
 42
1.0000
 43
1.0000
 50
0.0000
  0
INSERT
  8
31
  2
RECT
 10
34.6000
 20
-12.9090
 30
0.0000
 41
0.4500
 42
1.0000
 43
1.0000
 50
0.0000
  0
INSERT
  8
31
  2
RECT
 10
35.2500
 20
-12.9090
 30
0.0000
 41
0.4500
 42
1.0000
 43
1.0000
 50
0.0000
  0
INSERT
  8
31
  2
RECT
 10
35.9000
 20
-12.9090
 30
0.0000
 41
0.4500
 42
1.0000
 43
1.0000
 50
0.0000
  0
INSERT
  8
31
  2
RECT
 10
35.9000
 20
-10.4590
 30
0.0000
 41
0.4500
 42
1.0000
 43
1.0000
 50
180.0000
  0
INSERT
  8
31
  2
RECT
 10
35.2500
 20
-10.4590
 30
0.0000
 41
0.4500
 42
1.0000
 43
1.0000
 50
180.0000
  0
INSERT
  8
31
  2
RECT
 10
34.6000
 20
-10.4590
 30
0.0000
 41
0.4500
 42
1.0000
 43
1.0000
 50
180.0000
  0
INSERT
  8
31
  2
RECT
 10
33.9500
 20
-10.4590
 30
0.0000
 41
0.4500
 42
1.0000
 43
1.0000
 50
180.0000
  0
POLYLINE
  8
21
 66
1
 10
0.0000
 20
0.0000
 30
0.0000
 40
0.0000
 41
0.0000
 70
1
  0
VERTEX
  8
21
 10
43.7396
 20
9.0000
 30
0.0000
  0
VERTEX
  8
21
 10
43.7396
 20
11.5500
 30
0.0000
 42
1.0000
  0
VERTEX
  8
21
 10
43.5364
 20
11.5500
 30
0.0000
  0
VERTEX
  8
21
 10
43.5364
 20
9.0000
 30
0.0000
 42
1.0000
  0
SEQEND
  8
0
  0
POLYLINE
  8
21
 66
1
 10
0.0000
 20
0.0000
 30
0.0000
 40
0.0000
 41
0.0000
 70
1
  0
VERTEX
  8
21
 10
43.6380
 20
11.4484
 30
0.0000
  0
VERTEX
  8
21
 10
46.0880
 20
11.4484
 30
0.0000
 42
1.0000
  0
VERTEX
  8
21
 10
46.0880
 20
11.6516
 30
0.0000
  0
VERTEX
  8
21
 10
43.6380
 20
11.6516
 30
0.0000
 42
1.0000
  0
SEQEND
  8
0
  0
POLYLINE
  8
21
 66
1
 10
0.0000
 20
0.0000
 30
0.0000
 40
0.0000
 41
0.0000
 70
1
  0
VERTEX
  8
21
 10
45.9864
 20
11.5500
 30
0.0000
  0
VERTEX
  8
21
 10
45.9864
 20
9.0000
 30
0.0000
 42
1.0000
  0
VERTEX
  8
21
 10
46.1896
 20
9.0000
 30
0.0000
  0
VERTEX
  8
21
 10
46.1896
 20
11.5500
 30
0.0000
 42
1.0000
  0
SEQEND
  8
0
  0
POLYLINE
  8
21
 66
1
 10
0.0000
 20
0.0000
 30
0.0000
 40
0.0000
 41
0.0000
 70
1
  0
VERTEX
  8
21
 10
46.0880
 20
9.1016
 30
0.0000
  0
VERTEX
  8
21
 10
43.6380
 20
9.1016
 30
0.0000
 42
1.0000
  0
VERTEX
  8
21
 10
43.6380
 20
8.8984
 30
0.0000
  0
VERTEX
  8
21
 10
46.0880
 20
8.8984
 30
0.0000
 42
1.0000
  0
SEQEND
  8
0
  0
CIRCLE
  8
21
 10
43.3261
 20
11.7856
 30
0.0000
 40
0.0625
  0
CIRCLE
  8
21
 10
43.3261
 20
11.7856
 30
0.0000
 40
0.1895
  0
INSERT
  8
31
  2
RECT
 10
43.6880
 20
11.0250
 30
0.0000
 41
0.5500
 42
0.2500
 43
1.0000
 50
0.0000
  0
INSERT
  8
31
  2
RECT
 10
43.6880
 20
10.5250
 30
0.0000
 41
0.5500
 42
0.2500
 43
1.0000
 50
0.0000
  0
INSERT
  8
31
  2
RECT
 10
43.6880
 20
10.0250
 30
0.0000
 41
0.5500
 42
0.2500
 43
1.0000
 50
0.0000
  0
INSERT
  8
31
  2
RECT
 10
43.6880
 20
9.5250
 30
0.0000
 41
0.5500
 42
0.2500
 43
1.0000
 50
0.0000
  0
INSERT
  8
31
  2
RECT
 10
46.0380
 20
9.5250
 30
0.0000
 41
0.5500
 42
0.2500
 43
1.0000
 50
0.0000
  0
INSERT
  8
31
  2
RECT
 10
46.0380
 20
10.0250
 30
0.0000
 41
0.5500
 42
0.2500
 43
1.0000
 50
0.0000
  0
INSERT
  8
31
  2
RECT
 10
46.0380
 20
10.5250
 30
0.0000
 41
0.5500
 42
0.2500
 43
1.0000
 50
0.0000
  0
INSERT
  8
31
  2
RECT
 10
46.0380
 20
11.0250
 30
0.0000
 41
0.5500
 42
0.2500
 43
1.0000
 50
0.0000
  0
INSERT
  8
31
  2
RECT
 10
44.8630
 20
10.2750
 30
0.0000
 41
1.0000
 42
1.7000
 43
1.0000
 50
0.0000
  0
POLYLINE
  8
21
 66
1
 10
0.0000
 20
0.0000
 30
0.0000
 40
0.0000
 41
0.0000
 70
1
  0
VERTEX
  8
21
 10
31.5000
 20
9.0085
 30
0.0000
  0
VERTEX
  8
21
 10
33.5000
 20
9.0085
 30
0.0000
 42
1.0000
  0
VERTEX
  8
21
 10
33.5000
 20
9.1355
 30
0.0000
  0
VERTEX
  8
21
 10
31.5000
 20
9.1355
 30
0.0000
 42
1.0000
  0
SEQEND
  8
0
  0
POLYLINE
  8
21
 66
1
 10
0.0000
 20
0.0000
 30
0.0000
 40
0.0000
 41
0.0000
 70
1
  0
VERTEX
  8
21
 10
33.5000
 20
11.5355
 30
0.0000
  0
VERTEX
  8
21
 10
31.5000
 20
11.5355
 30
0.0000
 42
1.0000
  0
VERTEX
  8
21
 10
31.5000
 20
11.4085
 30
0.0000
  0
VERTEX
  8
21
 10
33.5000
 20
11.4085
 30
0.0000
 42
1.0000
  0
SEQEND
  8
0
  0
CIRCLE
  8
21
 10
31.1658
 20
11.4935
 30
0.0000
 40
0.1074
  0
CIRCLE
  8
21
 10
31.1658
 20
11.4935
 30
0.0000
 40
0.2344
  0
INSERT
  8
31
  2
RECT
 10
31.7500
 20
10.9220
 30
0.0000
 41
1.2000
 42
0.3500
 43
1.0000
 50
0.0000
  0
INSERT
  8
31
  2
RECT192000X56000R50
 10
31.7500
 20
10.2720
 30
0.0000
 41
1.0000
 42
1.0000
 43
1.0000
 50
0.0000
  0
INSERT
  8
31
  2
RECT192000X56000R50
 10
31.7500
 20
9.6220
 30
0.0000
 41
1.0000
 42
1.0000
 43
1.0000
 50
0.0000
  0
INSERT
  8
31
  2
RECT192000X56000R50
 10
33.2500
 20
9.6220
 30
0.0000
 41
1.0000
 42
1.0000
 43
1.0000
 50
0.0000
  0
INSERT
  8
31
  2
RECT192000X56000R50
 10
33.2500
 20
10.2720
 30
0.0000
 41
1.0000
 42
1.0000
 43
1.0000
 50
0.0000
  0
INSERT
  8
31
  2
RECT192000X56000R50
 10
33.2500
 20
10.9220
 30
0.0000
 41
1.0000
 42
1.0000
 43
1.0000
 50
0.0000
  0
ENDSEC
  0
EOF
